M48
; DRILL file {KiCad (5.1.4)-1} date 12/02/2021 09:43:18
; FORMAT={-:-/ absolute / inch / decimal}
; #@! TF.CreationDate,2021-02-12T09:43:18+03:00
; #@! TF.GenerationSoftware,Kicad,Pcbnew,(5.1.4)-1
; #@! TF.FileFunction,Plated,1,2,PTH
FMAT,2
INCH
T1C0.0157
T2C0.0300
T3C0.0315
T4C0.0394
T5C0.0413
T6C0.1260
%
G90
G05
T1
X1.48Y-2.495
X1.48Y-4.245
X1.52Y-3.13
X1.52Y-4.88
X1.64Y-2.83
X1.64Y-4.58
X1.675Y-3.13
X1.675Y-4.88
X1.695Y-3.41
X1.695Y-5.16
X1.885Y-3.4
X1.885Y-5.15
X1.905Y-3.6
X1.91Y-5.35
X1.975Y-2.64
X1.975Y-2.835
X1.975Y-3.13
X1.975Y-4.39
X1.975Y-4.585
X1.975Y-4.88
X2.11Y-3.77
X2.11Y-5.52
X2.275Y-3.125
X2.275Y-4.875
X2.405Y-2.5
X2.405Y-4.25
X2.795Y-4.195
X3.09Y-3.815
X3.09Y-4.71
X3.135Y-2.895
X3.135Y-2.995
X3.135Y-3.095
X3.235Y-3.145
X3.2789Y-2.785
X3.335Y-3.145
X3.435Y-3.145
X3.45Y-4.27
X3.505Y-3.795
X3.515Y-4.735
X3.535Y-2.895
X3.535Y-2.995
X3.535Y-3.095
X3.685Y-4.275
X4.055Y-3.785
X4.055Y-5.485
X4.085Y-3.525
X4.085Y-5.225
X4.105Y-2.495
X4.105Y-4.195
X4.145Y-3.13
X4.145Y-4.83
X4.255Y-2.835
X4.255Y-4.535
X4.3Y-3.13
X4.3Y-4.83
X4.375Y-3.415
X4.4Y-5.14
X4.59Y-2.64
X4.59Y-3.13
X4.59Y-4.34
X4.59Y-4.83
X4.595Y-2.83
X4.595Y-4.53
X4.765Y-3.54
X4.765Y-5.24
X4.9Y-3.405
X4.9Y-5.11
X4.905Y-3.135
X4.905Y-4.835
X5.03Y-2.5
X5.03Y-4.2
X5.055Y-3.13
X5.055Y-4.83
T2
X3.245Y-3.45
X3.345Y-3.45
X3.445Y-3.45
X3.645Y-3.45
X3.745Y-3.45
T3
X4.075Y-4.45
X4.1734Y-4.45
X1.45Y-2.75
X1.5484Y-2.75
X4.6927Y-4.45
X4.7911Y-4.45
X4.3839Y-2.75
X4.4823Y-2.75
X1.7589Y-4.5
X1.8573Y-4.5
X3.68Y-4.68
X3.68Y-4.7784
X4.3839Y-4.45
X4.4823Y-4.45
X1.7589Y-2.75
X1.8573Y-2.75
X3.335Y-4.68
X3.335Y-4.7784
X1.45Y-4.5
X1.5484Y-4.5
X3.685Y-3.7366
X3.685Y-3.835
X4.6927Y-2.75
X4.7911Y-2.75
X2.0677Y-4.5
X2.1661Y-4.5
X3.33Y-3.7416
X3.33Y-3.84
X2.0677Y-2.75
X2.1661Y-2.75
X4.075Y-2.75
X4.1734Y-2.75
X3.71Y-2.5516
X3.71Y-2.65
X5.0016Y-2.75
X5.1Y-2.75
X2.3766Y-4.5
X2.475Y-4.5
X3.71Y-2.9266
X3.71Y-3.025
X3.185Y-5.4035
X3.285Y-5.4035
X3.385Y-5.4035
X2.3766Y-2.75
X2.475Y-2.75
X5.0016Y-4.45
X5.1Y-4.45
T4
X2.835Y-4.5681
X2.835Y-4.6666
X2.835Y-4.765
X4.325Y-4.2
X4.425Y-4.2
X4.525Y-4.2
X4.625Y-4.2
X4.725Y-4.2
X4.825Y-4.2
X4.1481Y-3.675
X4.2466Y-3.675
X4.345Y-3.675
X1.7Y-2.5
X1.8Y-2.5
X1.9Y-2.5
X2.0Y-2.5
X2.1Y-2.5
X2.2Y-2.5
X5.05Y-3.565
X5.05Y-3.665
X5.05Y-3.765
X1.7Y-4.25
X1.8Y-4.25
X1.9Y-4.25
X2.0Y-4.25
X2.1Y-4.25
X2.2Y-4.25
X2.465Y-3.5415
X2.465Y-3.6415
X2.465Y-3.7415
X4.325Y-2.5
X4.425Y-2.5
X4.525Y-2.5
X4.625Y-2.5
X4.725Y-2.5
X4.825Y-2.5
X2.89Y-3.2381
X2.89Y-3.3366
X2.89Y-3.435
X4.1481Y-5.375
X4.2466Y-5.375
X4.345Y-5.375
X3.185Y-5.705
X3.285Y-5.705
X3.385Y-5.705
X2.465Y-5.2915
X2.465Y-5.3915
X2.465Y-5.4915
X2.83Y-3.7681
X2.83Y-3.8666
X2.83Y-3.965
X5.05Y-5.265
X5.05Y-5.365
X5.05Y-5.465
T5
X2.89Y-2.5216
X2.89Y-2.62
X2.89Y-2.8991
X2.89Y-2.9975
X1.49Y-3.6066
X1.49Y-3.705
X1.49Y-5.3566
X1.49Y-5.455
T6
X3.135Y-5.248
X3.435Y-5.248
T0
M30
