G04 #@! TF.GenerationSoftware,KiCad,Pcbnew,(5.1.4)-1*
G04 #@! TF.CreationDate,2021-02-12T09:42:23+03:00*
G04 #@! TF.ProjectId,combined,636f6d62-696e-4656-942e-6b696361645f,rev?*
G04 #@! TF.SameCoordinates,Original*
G04 #@! TF.FileFunction,Legend,Bot*
G04 #@! TF.FilePolarity,Positive*
%FSLAX46Y46*%
G04 Gerber Fmt 4.6, Leading zero omitted, Abs format (unit mm)*
G04 Created by KiCad (PCBNEW (5.1.4)-1) date 2021-02-12 09:42:23*
%MOMM*%
%LPD*%
G04 APERTURE LIST*
%ADD10C,0.300000*%
%ADD11C,0.150000*%
G04 APERTURE END LIST*
D10*
X85280571Y-141878857D02*
X86423428Y-141878857D01*
X85852000Y-141307428D02*
X85852000Y-142450285D01*
X82740571Y-141878857D02*
X83883428Y-141878857D01*
X81418857Y-142664571D02*
X81418857Y-141164571D01*
X81061714Y-141164571D01*
X80847428Y-141236000D01*
X80704571Y-141378857D01*
X80633142Y-141521714D01*
X80561714Y-141807428D01*
X80561714Y-142021714D01*
X80633142Y-142307428D01*
X80704571Y-142450285D01*
X80847428Y-142593142D01*
X81061714Y-142664571D01*
X81418857Y-142664571D01*
D11*
X75525380Y-74342666D02*
X76239666Y-74342666D01*
X76382523Y-74295047D01*
X76477761Y-74199809D01*
X76525380Y-74056952D01*
X76525380Y-73961714D01*
X75620619Y-74771238D02*
X75573000Y-74818857D01*
X75525380Y-74914095D01*
X75525380Y-75152190D01*
X75573000Y-75247428D01*
X75620619Y-75295047D01*
X75715857Y-75342666D01*
X75811095Y-75342666D01*
X75953952Y-75295047D01*
X76525380Y-74723619D01*
X76525380Y-75342666D01*
X75525380Y-64563666D02*
X76239666Y-64563666D01*
X76382523Y-64516047D01*
X76477761Y-64420809D01*
X76525380Y-64277952D01*
X76525380Y-64182714D01*
X76525380Y-65563666D02*
X76525380Y-64992238D01*
X76525380Y-65277952D02*
X75525380Y-65277952D01*
X75668238Y-65182714D01*
X75763476Y-65087476D01*
X75811095Y-64992238D01*
M02*
