G04 #@! TF.GenerationSoftware,KiCad,Pcbnew,(5.1.4)-1*
G04 #@! TF.CreationDate,2021-02-12T09:42:23+03:00*
G04 #@! TF.ProjectId,combined,636f6d62-696e-4656-942e-6b696361645f,rev?*
G04 #@! TF.SameCoordinates,Original*
G04 #@! TF.FileFunction,Soldermask,Top*
G04 #@! TF.FilePolarity,Negative*
%FSLAX46Y46*%
G04 Gerber Fmt 4.6, Leading zero omitted, Abs format (unit mm)*
G04 Created by KiCad (PCBNEW (5.1.4)-1) date 2021-02-12 09:42:23*
%MOMM*%
%LPD*%
G04 APERTURE LIST*
%ADD10C,0.100000*%
G04 APERTURE END LIST*
D10*
G36*
X61260662Y-144430723D02*
G01*
X61420147Y-144462447D01*
X61720610Y-144586903D01*
X61991019Y-144767585D01*
X62220983Y-144997549D01*
X62401665Y-145267958D01*
X62526121Y-145568421D01*
X62526121Y-145568423D01*
X62578640Y-145832449D01*
X62589568Y-145887391D01*
X62589568Y-146212609D01*
X62526121Y-146531579D01*
X62401665Y-146832042D01*
X62220983Y-147102451D01*
X61991019Y-147332415D01*
X61720610Y-147513097D01*
X61420147Y-147637553D01*
X61260662Y-147669277D01*
X61101179Y-147701000D01*
X60775957Y-147701000D01*
X60616474Y-147669277D01*
X60456989Y-147637553D01*
X60156526Y-147513097D01*
X59886117Y-147332415D01*
X59656153Y-147102451D01*
X59475471Y-146832042D01*
X59351015Y-146531579D01*
X59287568Y-146212609D01*
X59287568Y-145887391D01*
X59298497Y-145832449D01*
X59351015Y-145568423D01*
X59351015Y-145568421D01*
X59475471Y-145267958D01*
X59656153Y-144997549D01*
X59886117Y-144767585D01*
X60156526Y-144586903D01*
X60456989Y-144462447D01*
X60616474Y-144430723D01*
X60775957Y-144399000D01*
X61101179Y-144399000D01*
X61260662Y-144430723D01*
X61260662Y-144430723D01*
G37*
G36*
X38400662Y-144430723D02*
G01*
X38560147Y-144462447D01*
X38860610Y-144586903D01*
X39131019Y-144767585D01*
X39360983Y-144997549D01*
X39541665Y-145267958D01*
X39666121Y-145568421D01*
X39666121Y-145568423D01*
X39718640Y-145832449D01*
X39729568Y-145887391D01*
X39729568Y-146212609D01*
X39666121Y-146531579D01*
X39541665Y-146832042D01*
X39360983Y-147102451D01*
X39131019Y-147332415D01*
X38860610Y-147513097D01*
X38560147Y-147637553D01*
X38400662Y-147669277D01*
X38241179Y-147701000D01*
X37915957Y-147701000D01*
X37756474Y-147669277D01*
X37596989Y-147637553D01*
X37296526Y-147513097D01*
X37026117Y-147332415D01*
X36796153Y-147102451D01*
X36615471Y-146832042D01*
X36491015Y-146531579D01*
X36427568Y-146212609D01*
X36427568Y-145887391D01*
X36438497Y-145832449D01*
X36491015Y-145568423D01*
X36491015Y-145568421D01*
X36615471Y-145267958D01*
X36796153Y-144997549D01*
X37026117Y-144767585D01*
X37296526Y-144586903D01*
X37596989Y-144462447D01*
X37756474Y-144430723D01*
X37915957Y-144399000D01*
X38241179Y-144399000D01*
X38400662Y-144430723D01*
X38400662Y-144430723D01*
G37*
G36*
X105097094Y-143160723D02*
G01*
X105256579Y-143192447D01*
X105557042Y-143316903D01*
X105827451Y-143497585D01*
X106057415Y-143727549D01*
X106238097Y-143997958D01*
X106362553Y-144298421D01*
X106362553Y-144298423D01*
X106426000Y-144617389D01*
X106426000Y-144942611D01*
X106397950Y-145083626D01*
X106362553Y-145261579D01*
X106238097Y-145562042D01*
X106057415Y-145832451D01*
X105827451Y-146062415D01*
X105557042Y-146243097D01*
X105256579Y-146367553D01*
X105097094Y-146399277D01*
X104937611Y-146431000D01*
X104612389Y-146431000D01*
X104452906Y-146399277D01*
X104293421Y-146367553D01*
X103992958Y-146243097D01*
X103722549Y-146062415D01*
X103492585Y-145832451D01*
X103311903Y-145562042D01*
X103187447Y-145261579D01*
X103152050Y-145083626D01*
X103124000Y-144942611D01*
X103124000Y-144617389D01*
X103187447Y-144298423D01*
X103187447Y-144298421D01*
X103311903Y-143997958D01*
X103492585Y-143727549D01*
X103722549Y-143497585D01*
X103992958Y-143316903D01*
X104293421Y-143192447D01*
X104452906Y-143160723D01*
X104612389Y-143129000D01*
X104937611Y-143129000D01*
X105097094Y-143160723D01*
X105097094Y-143160723D01*
G37*
G36*
X127957094Y-143160723D02*
G01*
X128116579Y-143192447D01*
X128417042Y-143316903D01*
X128687451Y-143497585D01*
X128917415Y-143727549D01*
X129098097Y-143997958D01*
X129222553Y-144298421D01*
X129222553Y-144298423D01*
X129286000Y-144617389D01*
X129286000Y-144942611D01*
X129257950Y-145083626D01*
X129222553Y-145261579D01*
X129098097Y-145562042D01*
X128917415Y-145832451D01*
X128687451Y-146062415D01*
X128417042Y-146243097D01*
X128116579Y-146367553D01*
X127957094Y-146399277D01*
X127797611Y-146431000D01*
X127472389Y-146431000D01*
X127312906Y-146399277D01*
X127153421Y-146367553D01*
X126852958Y-146243097D01*
X126582549Y-146062415D01*
X126352585Y-145832451D01*
X126171903Y-145562042D01*
X126047447Y-145261579D01*
X126012050Y-145083626D01*
X125984000Y-144942611D01*
X125984000Y-144617389D01*
X126047447Y-144298423D01*
X126047447Y-144298421D01*
X126171903Y-143997958D01*
X126352585Y-143727549D01*
X126582549Y-143497585D01*
X126852958Y-143316903D01*
X127153421Y-143192447D01*
X127312906Y-143160723D01*
X127472389Y-143129000D01*
X127797611Y-143129000D01*
X127957094Y-143160723D01*
X127957094Y-143160723D01*
G37*
G36*
X86111504Y-144014691D02*
G01*
X86155627Y-144019037D01*
X86325466Y-144070557D01*
X86377641Y-144098445D01*
X86481989Y-144154220D01*
X86619185Y-144266815D01*
X86731780Y-144404011D01*
X86763014Y-144462447D01*
X86815443Y-144560534D01*
X86866963Y-144730373D01*
X86884359Y-144907000D01*
X86866963Y-145083627D01*
X86815443Y-145253466D01*
X86787555Y-145305641D01*
X86731780Y-145409989D01*
X86619185Y-145547185D01*
X86481989Y-145659780D01*
X86377641Y-145715555D01*
X86325466Y-145743443D01*
X86155627Y-145794963D01*
X86111504Y-145799309D01*
X86023260Y-145808000D01*
X85934740Y-145808000D01*
X85846496Y-145799309D01*
X85802373Y-145794963D01*
X85632534Y-145743443D01*
X85580359Y-145715555D01*
X85476011Y-145659780D01*
X85338815Y-145547185D01*
X85226220Y-145409989D01*
X85170445Y-145305641D01*
X85142557Y-145253466D01*
X85091037Y-145083627D01*
X85073641Y-144907000D01*
X85091037Y-144730373D01*
X85142557Y-144560534D01*
X85194986Y-144462447D01*
X85226220Y-144404011D01*
X85338815Y-144266815D01*
X85476011Y-144154220D01*
X85580359Y-144098445D01*
X85632534Y-144070557D01*
X85802373Y-144019037D01*
X85846496Y-144014691D01*
X85934740Y-144006000D01*
X86023260Y-144006000D01*
X86111504Y-144014691D01*
X86111504Y-144014691D01*
G37*
G36*
X84340000Y-145808000D02*
G01*
X82538000Y-145808000D01*
X82538000Y-144006000D01*
X84340000Y-144006000D01*
X84340000Y-145808000D01*
X84340000Y-145808000D01*
G37*
G36*
X81031504Y-144014691D02*
G01*
X81075627Y-144019037D01*
X81245466Y-144070557D01*
X81297641Y-144098445D01*
X81401989Y-144154220D01*
X81539185Y-144266815D01*
X81651780Y-144404011D01*
X81683014Y-144462447D01*
X81735443Y-144560534D01*
X81786963Y-144730373D01*
X81804359Y-144907000D01*
X81786963Y-145083627D01*
X81735443Y-145253466D01*
X81707555Y-145305641D01*
X81651780Y-145409989D01*
X81539185Y-145547185D01*
X81401989Y-145659780D01*
X81297641Y-145715555D01*
X81245466Y-145743443D01*
X81075627Y-145794963D01*
X81031504Y-145799309D01*
X80943260Y-145808000D01*
X80854740Y-145808000D01*
X80766496Y-145799309D01*
X80722373Y-145794963D01*
X80552534Y-145743443D01*
X80500359Y-145715555D01*
X80396011Y-145659780D01*
X80258815Y-145547185D01*
X80146220Y-145409989D01*
X80090445Y-145305641D01*
X80062557Y-145253466D01*
X80011037Y-145083627D01*
X79993641Y-144907000D01*
X80011037Y-144730373D01*
X80062557Y-144560534D01*
X80114986Y-144462447D01*
X80146220Y-144404011D01*
X80258815Y-144266815D01*
X80396011Y-144154220D01*
X80500359Y-144098445D01*
X80552534Y-144070557D01*
X80722373Y-144019037D01*
X80766496Y-144014691D01*
X80854740Y-144006000D01*
X80943260Y-144006000D01*
X81031504Y-144014691D01*
X81031504Y-144014691D01*
G37*
G36*
X80069000Y-142154000D02*
G01*
X78467000Y-142154000D01*
X78467000Y-140802000D01*
X80069000Y-140802000D01*
X80069000Y-142154000D01*
X80069000Y-142154000D01*
G37*
G36*
X82569000Y-142154000D02*
G01*
X80967000Y-142154000D01*
X80967000Y-140802000D01*
X82569000Y-140802000D01*
X82569000Y-142154000D01*
X82569000Y-142154000D01*
G37*
G36*
X85840258Y-140832004D02*
G01*
X85886754Y-140846108D01*
X85929604Y-140869013D01*
X85967163Y-140899837D01*
X85997987Y-140937396D01*
X86020892Y-140980246D01*
X86034996Y-141026742D01*
X86040000Y-141077549D01*
X86040000Y-141878451D01*
X86034996Y-141929258D01*
X86020892Y-141975754D01*
X85997987Y-142018604D01*
X85967163Y-142056163D01*
X85929604Y-142086987D01*
X85886754Y-142109892D01*
X85840258Y-142123996D01*
X85789451Y-142129000D01*
X85138549Y-142129000D01*
X85087742Y-142123996D01*
X85041246Y-142109892D01*
X84998396Y-142086987D01*
X84960837Y-142056163D01*
X84930013Y-142018604D01*
X84907108Y-141975754D01*
X84893004Y-141929258D01*
X84888000Y-141878451D01*
X84888000Y-141077549D01*
X84893004Y-141026742D01*
X84907108Y-140980246D01*
X84930013Y-140937396D01*
X84960837Y-140899837D01*
X84998396Y-140869013D01*
X85041246Y-140846108D01*
X85087742Y-140832004D01*
X85138549Y-140827000D01*
X85789451Y-140827000D01*
X85840258Y-140832004D01*
X85840258Y-140832004D01*
G37*
G36*
X88140258Y-140832004D02*
G01*
X88186754Y-140846108D01*
X88229604Y-140869013D01*
X88267163Y-140899837D01*
X88297987Y-140937396D01*
X88320892Y-140980246D01*
X88334996Y-141026742D01*
X88340000Y-141077549D01*
X88340000Y-141878451D01*
X88334996Y-141929258D01*
X88320892Y-141975754D01*
X88297987Y-142018604D01*
X88267163Y-142056163D01*
X88229604Y-142086987D01*
X88186754Y-142109892D01*
X88140258Y-142123996D01*
X88089451Y-142129000D01*
X87438549Y-142129000D01*
X87387742Y-142123996D01*
X87341246Y-142109892D01*
X87298396Y-142086987D01*
X87260837Y-142056163D01*
X87230013Y-142018604D01*
X87207108Y-141975754D01*
X87193004Y-141929258D01*
X87188000Y-141878451D01*
X87188000Y-141077549D01*
X87193004Y-141026742D01*
X87207108Y-140980246D01*
X87230013Y-140937396D01*
X87260837Y-140899837D01*
X87298396Y-140869013D01*
X87341246Y-140846108D01*
X87387742Y-140832004D01*
X87438549Y-140827000D01*
X88089451Y-140827000D01*
X88140258Y-140832004D01*
X88140258Y-140832004D01*
G37*
G36*
X50224000Y-141044000D02*
G01*
X48622000Y-141044000D01*
X48622000Y-139692000D01*
X50224000Y-139692000D01*
X50224000Y-141044000D01*
X50224000Y-141044000D01*
G37*
G36*
X47009000Y-141044000D02*
G01*
X45407000Y-141044000D01*
X45407000Y-139692000D01*
X47009000Y-139692000D01*
X47009000Y-141044000D01*
X47009000Y-141044000D01*
G37*
G36*
X52724000Y-141044000D02*
G01*
X51122000Y-141044000D01*
X51122000Y-139692000D01*
X52724000Y-139692000D01*
X52724000Y-141044000D01*
X52724000Y-141044000D01*
G37*
G36*
X44509000Y-141044000D02*
G01*
X42907000Y-141044000D01*
X42907000Y-139692000D01*
X44509000Y-139692000D01*
X44509000Y-141044000D01*
X44509000Y-141044000D01*
G37*
G36*
X56347000Y-141039000D02*
G01*
X54745000Y-141039000D01*
X54745000Y-139637000D01*
X56347000Y-139637000D01*
X56347000Y-141039000D01*
X56347000Y-141039000D01*
G37*
G36*
X59047000Y-141039000D02*
G01*
X57445000Y-141039000D01*
X57445000Y-139637000D01*
X59047000Y-139637000D01*
X59047000Y-141039000D01*
X59047000Y-141039000D01*
G37*
G36*
X62743504Y-138590691D02*
G01*
X62787627Y-138595037D01*
X62957466Y-138646557D01*
X62960545Y-138648203D01*
X63113989Y-138730220D01*
X63251185Y-138842815D01*
X63363780Y-138980011D01*
X63372126Y-138995626D01*
X63447443Y-139136534D01*
X63498963Y-139306373D01*
X63516359Y-139483000D01*
X63498963Y-139659627D01*
X63447443Y-139829466D01*
X63447442Y-139829467D01*
X63363780Y-139985989D01*
X63251185Y-140123185D01*
X63113989Y-140235780D01*
X63009641Y-140291555D01*
X62957466Y-140319443D01*
X62787627Y-140370963D01*
X62743504Y-140375309D01*
X62655260Y-140384000D01*
X62566740Y-140384000D01*
X62478496Y-140375309D01*
X62434373Y-140370963D01*
X62264534Y-140319443D01*
X62212359Y-140291555D01*
X62108011Y-140235780D01*
X61970815Y-140123185D01*
X61858220Y-139985989D01*
X61774558Y-139829467D01*
X61774557Y-139829466D01*
X61723037Y-139659627D01*
X61705641Y-139483000D01*
X61723037Y-139306373D01*
X61774557Y-139136534D01*
X61849874Y-138995626D01*
X61858220Y-138980011D01*
X61970815Y-138842815D01*
X62108011Y-138730220D01*
X62261455Y-138648203D01*
X62264534Y-138646557D01*
X62434373Y-138595037D01*
X62478496Y-138590691D01*
X62566740Y-138582000D01*
X62655260Y-138582000D01*
X62743504Y-138590691D01*
X62743504Y-138590691D01*
G37*
G36*
X118550000Y-139868000D02*
G01*
X116948000Y-139868000D01*
X116948000Y-138516000D01*
X118550000Y-138516000D01*
X118550000Y-139868000D01*
X118550000Y-139868000D01*
G37*
G36*
X121050000Y-139868000D02*
G01*
X119448000Y-139868000D01*
X119448000Y-138516000D01*
X121050000Y-138516000D01*
X121050000Y-139868000D01*
X121050000Y-139868000D01*
G37*
G36*
X128402504Y-137918691D02*
G01*
X128446627Y-137923037D01*
X128616466Y-137974557D01*
X128640366Y-137987332D01*
X128772989Y-138058220D01*
X128910185Y-138170815D01*
X129022780Y-138308011D01*
X129078555Y-138412359D01*
X129106443Y-138464534D01*
X129157963Y-138634373D01*
X129175359Y-138811000D01*
X129157963Y-138987627D01*
X129106443Y-139157466D01*
X129106442Y-139157467D01*
X129022780Y-139313989D01*
X128910185Y-139451185D01*
X128772989Y-139563780D01*
X128668641Y-139619555D01*
X128616466Y-139647443D01*
X128446627Y-139698963D01*
X128402504Y-139703309D01*
X128314260Y-139712000D01*
X128225740Y-139712000D01*
X128137496Y-139703309D01*
X128093373Y-139698963D01*
X127923534Y-139647443D01*
X127871359Y-139619555D01*
X127767011Y-139563780D01*
X127629815Y-139451185D01*
X127517220Y-139313989D01*
X127433558Y-139157467D01*
X127433557Y-139157466D01*
X127382037Y-138987627D01*
X127364641Y-138811000D01*
X127382037Y-138634373D01*
X127433557Y-138464534D01*
X127461445Y-138412359D01*
X127517220Y-138308011D01*
X127629815Y-138170815D01*
X127767011Y-138058220D01*
X127899634Y-137987332D01*
X127923534Y-137974557D01*
X128093373Y-137923037D01*
X128137496Y-137918691D01*
X128225740Y-137910000D01*
X128314260Y-137910000D01*
X128402504Y-137918691D01*
X128402504Y-137918691D01*
G37*
G36*
X38116104Y-137666585D02*
G01*
X38284626Y-137736389D01*
X38436291Y-137837728D01*
X38565272Y-137966709D01*
X38666611Y-138118374D01*
X38736415Y-138286896D01*
X38772000Y-138465797D01*
X38772000Y-138648203D01*
X38736415Y-138827104D01*
X38666611Y-138995626D01*
X38565272Y-139147291D01*
X38436291Y-139276272D01*
X38284626Y-139377611D01*
X38116104Y-139447415D01*
X37937203Y-139483000D01*
X37754797Y-139483000D01*
X37575896Y-139447415D01*
X37407374Y-139377611D01*
X37255709Y-139276272D01*
X37126728Y-139147291D01*
X37025389Y-138995626D01*
X36955585Y-138827104D01*
X36920000Y-138648203D01*
X36920000Y-138465797D01*
X36955585Y-138286896D01*
X37025389Y-138118374D01*
X37126728Y-137966709D01*
X37255709Y-137837728D01*
X37407374Y-137736389D01*
X37575896Y-137666585D01*
X37754797Y-137631000D01*
X37937203Y-137631000D01*
X38116104Y-137666585D01*
X38116104Y-137666585D01*
G37*
G36*
X58947000Y-137987332D02*
G01*
X57345000Y-137987332D01*
X57345000Y-136635332D01*
X58947000Y-136635332D01*
X58947000Y-137987332D01*
X58947000Y-137987332D01*
G37*
G36*
X56447000Y-137987332D02*
G01*
X54845000Y-137987332D01*
X54845000Y-136635332D01*
X56447000Y-136635332D01*
X56447000Y-137987332D01*
X56447000Y-137987332D01*
G37*
G36*
X86184639Y-136572092D02*
G01*
X86184642Y-136572093D01*
X86184641Y-136572093D01*
X86312943Y-136625237D01*
X86428411Y-136702391D01*
X86526609Y-136800589D01*
X86603763Y-136916057D01*
X86631491Y-136983000D01*
X86656908Y-137044361D01*
X86684000Y-137180562D01*
X86684000Y-137319438D01*
X86656908Y-137455639D01*
X86656907Y-137455641D01*
X86603763Y-137583943D01*
X86526609Y-137699411D01*
X86428411Y-137797609D01*
X86312943Y-137874763D01*
X86206653Y-137918789D01*
X86184639Y-137927908D01*
X86048438Y-137955000D01*
X85909562Y-137955000D01*
X85773361Y-137927908D01*
X85751347Y-137918789D01*
X85645057Y-137874763D01*
X85529589Y-137797609D01*
X85431391Y-137699411D01*
X85354237Y-137583943D01*
X85301093Y-137455641D01*
X85301092Y-137455639D01*
X85274000Y-137319438D01*
X85274000Y-137180562D01*
X85301092Y-137044361D01*
X85326509Y-136983000D01*
X85354237Y-136916057D01*
X85431391Y-136800589D01*
X85529589Y-136702391D01*
X85645057Y-136625237D01*
X85773359Y-136572093D01*
X85773358Y-136572093D01*
X85773361Y-136572092D01*
X85909562Y-136545000D01*
X86048438Y-136545000D01*
X86184639Y-136572092D01*
X86184639Y-136572092D01*
G37*
G36*
X81104639Y-136572092D02*
G01*
X81104642Y-136572093D01*
X81104641Y-136572093D01*
X81232943Y-136625237D01*
X81348411Y-136702391D01*
X81446609Y-136800589D01*
X81523763Y-136916057D01*
X81551491Y-136983000D01*
X81576908Y-137044361D01*
X81604000Y-137180562D01*
X81604000Y-137319438D01*
X81576908Y-137455639D01*
X81576907Y-137455641D01*
X81523763Y-137583943D01*
X81446609Y-137699411D01*
X81348411Y-137797609D01*
X81232943Y-137874763D01*
X81126653Y-137918789D01*
X81104639Y-137927908D01*
X80968438Y-137955000D01*
X80829562Y-137955000D01*
X80693361Y-137927908D01*
X80671347Y-137918789D01*
X80565057Y-137874763D01*
X80449589Y-137797609D01*
X80351391Y-137699411D01*
X80274237Y-137583943D01*
X80221093Y-137455641D01*
X80221092Y-137455639D01*
X80194000Y-137319438D01*
X80194000Y-137180562D01*
X80221092Y-137044361D01*
X80246509Y-136983000D01*
X80274237Y-136916057D01*
X80351391Y-136800589D01*
X80449589Y-136702391D01*
X80565057Y-136625237D01*
X80693359Y-136572093D01*
X80693358Y-136572093D01*
X80693361Y-136572092D01*
X80829562Y-136545000D01*
X80968438Y-136545000D01*
X81104639Y-136572092D01*
X81104639Y-136572092D01*
G37*
G36*
X83644639Y-136572092D02*
G01*
X83644642Y-136572093D01*
X83644641Y-136572093D01*
X83772943Y-136625237D01*
X83888411Y-136702391D01*
X83986609Y-136800589D01*
X84063763Y-136916057D01*
X84091491Y-136983000D01*
X84116908Y-137044361D01*
X84144000Y-137180562D01*
X84144000Y-137319438D01*
X84116908Y-137455639D01*
X84116907Y-137455641D01*
X84063763Y-137583943D01*
X83986609Y-137699411D01*
X83888411Y-137797609D01*
X83772943Y-137874763D01*
X83666653Y-137918789D01*
X83644639Y-137927908D01*
X83508438Y-137955000D01*
X83369562Y-137955000D01*
X83233361Y-137927908D01*
X83211347Y-137918789D01*
X83105057Y-137874763D01*
X82989589Y-137797609D01*
X82891391Y-137699411D01*
X82814237Y-137583943D01*
X82761093Y-137455641D01*
X82761092Y-137455639D01*
X82734000Y-137319438D01*
X82734000Y-137180562D01*
X82761092Y-137044361D01*
X82786509Y-136983000D01*
X82814237Y-136916057D01*
X82891391Y-136800589D01*
X82989589Y-136702391D01*
X83105057Y-136625237D01*
X83233359Y-136572093D01*
X83233358Y-136572093D01*
X83233361Y-136572092D01*
X83369562Y-136545000D01*
X83508438Y-136545000D01*
X83644639Y-136572092D01*
X83644639Y-136572092D01*
G37*
G36*
X63512000Y-137844000D02*
G01*
X61710000Y-137844000D01*
X61710000Y-136042000D01*
X63512000Y-136042000D01*
X63512000Y-137844000D01*
X63512000Y-137844000D01*
G37*
G36*
X51859000Y-137558000D02*
G01*
X50307000Y-137558000D01*
X50307000Y-137106000D01*
X51859000Y-137106000D01*
X51859000Y-137558000D01*
X51859000Y-137558000D01*
G37*
G36*
X45959000Y-137558000D02*
G01*
X44407000Y-137558000D01*
X44407000Y-137106000D01*
X45959000Y-137106000D01*
X45959000Y-137558000D01*
X45959000Y-137558000D01*
G37*
G36*
X108789000Y-137451000D02*
G01*
X106937000Y-137451000D01*
X106937000Y-135599000D01*
X108789000Y-135599000D01*
X108789000Y-137451000D01*
X108789000Y-137451000D01*
G37*
G36*
X105633104Y-135634585D02*
G01*
X105801626Y-135704389D01*
X105953291Y-135805728D01*
X106082272Y-135934709D01*
X106183611Y-136086374D01*
X106253415Y-136254896D01*
X106289000Y-136433797D01*
X106289000Y-136616203D01*
X106253415Y-136795104D01*
X106183611Y-136963626D01*
X106082272Y-137115291D01*
X105953291Y-137244272D01*
X105801626Y-137345611D01*
X105633104Y-137415415D01*
X105454203Y-137451000D01*
X105271797Y-137451000D01*
X105092896Y-137415415D01*
X104924374Y-137345611D01*
X104772709Y-137244272D01*
X104643728Y-137115291D01*
X104542389Y-136963626D01*
X104472585Y-136795104D01*
X104437000Y-136616203D01*
X104437000Y-136433797D01*
X104472585Y-136254896D01*
X104542389Y-136086374D01*
X104643728Y-135934709D01*
X104772709Y-135805728D01*
X104924374Y-135704389D01*
X105092896Y-135634585D01*
X105271797Y-135599000D01*
X105454203Y-135599000D01*
X105633104Y-135634585D01*
X105633104Y-135634585D01*
G37*
G36*
X110633104Y-135634585D02*
G01*
X110801626Y-135704389D01*
X110953291Y-135805728D01*
X111082272Y-135934709D01*
X111183611Y-136086374D01*
X111253415Y-136254896D01*
X111289000Y-136433797D01*
X111289000Y-136616203D01*
X111253415Y-136795104D01*
X111183611Y-136963626D01*
X111082272Y-137115291D01*
X110953291Y-137244272D01*
X110801626Y-137345611D01*
X110633104Y-137415415D01*
X110454203Y-137451000D01*
X110271797Y-137451000D01*
X110092896Y-137415415D01*
X109924374Y-137345611D01*
X109772709Y-137244272D01*
X109643728Y-137115291D01*
X109542389Y-136963626D01*
X109472585Y-136795104D01*
X109437000Y-136616203D01*
X109437000Y-136433797D01*
X109472585Y-136254896D01*
X109542389Y-136086374D01*
X109643728Y-135934709D01*
X109772709Y-135805728D01*
X109924374Y-135704389D01*
X110092896Y-135634585D01*
X110271797Y-135599000D01*
X110454203Y-135599000D01*
X110633104Y-135634585D01*
X110633104Y-135634585D01*
G37*
G36*
X129171000Y-137172000D02*
G01*
X127369000Y-137172000D01*
X127369000Y-135370000D01*
X129171000Y-135370000D01*
X129171000Y-137172000D01*
X129171000Y-137172000D01*
G37*
G36*
X122923500Y-137084000D02*
G01*
X121678500Y-137084000D01*
X121678500Y-136474000D01*
X122923500Y-136474000D01*
X122923500Y-137084000D01*
X122923500Y-137084000D01*
G37*
G36*
X116573500Y-137084000D02*
G01*
X115328500Y-137084000D01*
X115328500Y-136474000D01*
X116573500Y-136474000D01*
X116573500Y-137084000D01*
X116573500Y-137084000D01*
G37*
G36*
X38772000Y-136983000D02*
G01*
X36920000Y-136983000D01*
X36920000Y-135131000D01*
X38772000Y-135131000D01*
X38772000Y-136983000D01*
X38772000Y-136983000D01*
G37*
G36*
X51859000Y-136908000D02*
G01*
X50307000Y-136908000D01*
X50307000Y-136456000D01*
X51859000Y-136456000D01*
X51859000Y-136908000D01*
X51859000Y-136908000D01*
G37*
G36*
X45959000Y-136908000D02*
G01*
X44407000Y-136908000D01*
X44407000Y-136456000D01*
X45959000Y-136456000D01*
X45959000Y-136908000D01*
X45959000Y-136908000D01*
G37*
G36*
X45959000Y-136258000D02*
G01*
X44407000Y-136258000D01*
X44407000Y-135806000D01*
X45959000Y-135806000D01*
X45959000Y-136258000D01*
X45959000Y-136258000D01*
G37*
G36*
X51859000Y-136258000D02*
G01*
X50307000Y-136258000D01*
X50307000Y-135806000D01*
X51859000Y-135806000D01*
X51859000Y-136258000D01*
X51859000Y-136258000D01*
G37*
G36*
X122923500Y-135814000D02*
G01*
X121678500Y-135814000D01*
X121678500Y-135204000D01*
X122923500Y-135204000D01*
X122923500Y-135814000D01*
X122923500Y-135814000D01*
G37*
G36*
X116573500Y-135814000D02*
G01*
X115328500Y-135814000D01*
X115328500Y-135204000D01*
X116573500Y-135204000D01*
X116573500Y-135814000D01*
X116573500Y-135814000D01*
G37*
G36*
X45959000Y-135608000D02*
G01*
X44407000Y-135608000D01*
X44407000Y-135156000D01*
X45959000Y-135156000D01*
X45959000Y-135608000D01*
X45959000Y-135608000D01*
G37*
G36*
X51859000Y-135608000D02*
G01*
X50307000Y-135608000D01*
X50307000Y-135156000D01*
X51859000Y-135156000D01*
X51859000Y-135608000D01*
X51859000Y-135608000D01*
G37*
G36*
X87847253Y-131327818D02*
G01*
X87847256Y-131327819D01*
X87847255Y-131327819D01*
X88220513Y-131482427D01*
X88556436Y-131706884D01*
X88842116Y-131992564D01*
X89066573Y-132328487D01*
X89194655Y-132637705D01*
X89221182Y-132701747D01*
X89300000Y-133097993D01*
X89300000Y-133502007D01*
X89221182Y-133898253D01*
X89217299Y-133907627D01*
X89066573Y-134271513D01*
X88924742Y-134483778D01*
X88842117Y-134607435D01*
X88556435Y-134893117D01*
X88489931Y-134937553D01*
X88220513Y-135117573D01*
X87926294Y-135239442D01*
X87847253Y-135272182D01*
X87451007Y-135351000D01*
X87046993Y-135351000D01*
X86650747Y-135272182D01*
X86571706Y-135239442D01*
X86277487Y-135117573D01*
X86008069Y-134937553D01*
X85941565Y-134893117D01*
X85655883Y-134607435D01*
X85573258Y-134483778D01*
X85431427Y-134271513D01*
X85280701Y-133907627D01*
X85276818Y-133898253D01*
X85198000Y-133502007D01*
X85198000Y-133097993D01*
X85276818Y-132701747D01*
X85303345Y-132637705D01*
X85431427Y-132328487D01*
X85655884Y-131992564D01*
X85941564Y-131706884D01*
X86277487Y-131482427D01*
X86650745Y-131327819D01*
X86650744Y-131327819D01*
X86650747Y-131327818D01*
X87046993Y-131249000D01*
X87451007Y-131249000D01*
X87847253Y-131327818D01*
X87847253Y-131327818D01*
G37*
G36*
X80227253Y-131327818D02*
G01*
X80227256Y-131327819D01*
X80227255Y-131327819D01*
X80600513Y-131482427D01*
X80936436Y-131706884D01*
X81222116Y-131992564D01*
X81446573Y-132328487D01*
X81574655Y-132637705D01*
X81601182Y-132701747D01*
X81680000Y-133097993D01*
X81680000Y-133502007D01*
X81601182Y-133898253D01*
X81597299Y-133907627D01*
X81446573Y-134271513D01*
X81304742Y-134483778D01*
X81222117Y-134607435D01*
X80936435Y-134893117D01*
X80869931Y-134937553D01*
X80600513Y-135117573D01*
X80306294Y-135239442D01*
X80227253Y-135272182D01*
X79831007Y-135351000D01*
X79426993Y-135351000D01*
X79030747Y-135272182D01*
X78951706Y-135239442D01*
X78657487Y-135117573D01*
X78388069Y-134937553D01*
X78321565Y-134893117D01*
X78035883Y-134607435D01*
X77953258Y-134483778D01*
X77811427Y-134271513D01*
X77660701Y-133907627D01*
X77656818Y-133898253D01*
X77578000Y-133502007D01*
X77578000Y-133097993D01*
X77656818Y-132701747D01*
X77683345Y-132637705D01*
X77811427Y-132328487D01*
X78035884Y-131992564D01*
X78321564Y-131706884D01*
X78657487Y-131482427D01*
X79030745Y-131327819D01*
X79030744Y-131327819D01*
X79030747Y-131327818D01*
X79426993Y-131249000D01*
X79831007Y-131249000D01*
X80227253Y-131327818D01*
X80227253Y-131327818D01*
G37*
G36*
X62743504Y-133510691D02*
G01*
X62787627Y-133515037D01*
X62957466Y-133566557D01*
X63009641Y-133594445D01*
X63113989Y-133650220D01*
X63251185Y-133762815D01*
X63363780Y-133900011D01*
X63381947Y-133934000D01*
X63447443Y-134056534D01*
X63498963Y-134226373D01*
X63516359Y-134403000D01*
X63498963Y-134579627D01*
X63447443Y-134749466D01*
X63447442Y-134749467D01*
X63363780Y-134905989D01*
X63251185Y-135043185D01*
X63113989Y-135155780D01*
X63023775Y-135204000D01*
X62957466Y-135239443D01*
X62787627Y-135290963D01*
X62743504Y-135295309D01*
X62655260Y-135304000D01*
X62566740Y-135304000D01*
X62478496Y-135295309D01*
X62434373Y-135290963D01*
X62264534Y-135239443D01*
X62198225Y-135204000D01*
X62108011Y-135155780D01*
X61970815Y-135043185D01*
X61858220Y-134905989D01*
X61774558Y-134749467D01*
X61774557Y-134749466D01*
X61723037Y-134579627D01*
X61705641Y-134403000D01*
X61723037Y-134226373D01*
X61774557Y-134056534D01*
X61840053Y-133934000D01*
X61858220Y-133900011D01*
X61970815Y-133762815D01*
X62108011Y-133650220D01*
X62212359Y-133594445D01*
X62264534Y-133566557D01*
X62434373Y-133515037D01*
X62478496Y-133510691D01*
X62566740Y-133502000D01*
X62655260Y-133502000D01*
X62743504Y-133510691D01*
X62743504Y-133510691D01*
G37*
G36*
X73220094Y-131730724D02*
G01*
X73379579Y-131762447D01*
X73680042Y-131886903D01*
X73950451Y-132067585D01*
X74180415Y-132297549D01*
X74361097Y-132567958D01*
X74485553Y-132868421D01*
X74490752Y-132894558D01*
X74549000Y-133187389D01*
X74549000Y-133512611D01*
X74538269Y-133566557D01*
X74485553Y-133831579D01*
X74361097Y-134132042D01*
X74180415Y-134402451D01*
X73950451Y-134632415D01*
X73680042Y-134813097D01*
X73379579Y-134937553D01*
X73220094Y-134969277D01*
X73060611Y-135001000D01*
X72735389Y-135001000D01*
X72575906Y-134969277D01*
X72416421Y-134937553D01*
X72115958Y-134813097D01*
X71845549Y-134632415D01*
X71615585Y-134402451D01*
X71434903Y-134132042D01*
X71310447Y-133831579D01*
X71257731Y-133566557D01*
X71247000Y-133512611D01*
X71247000Y-133187389D01*
X71305248Y-132894558D01*
X71310447Y-132868421D01*
X71434903Y-132567958D01*
X71615585Y-132297549D01*
X71845549Y-132067585D01*
X72115958Y-131886903D01*
X72416421Y-131762447D01*
X72575906Y-131730724D01*
X72735389Y-131699000D01*
X73060611Y-131699000D01*
X73220094Y-131730724D01*
X73220094Y-131730724D01*
G37*
G36*
X58947000Y-134990666D02*
G01*
X57345000Y-134990666D01*
X57345000Y-133638666D01*
X58947000Y-133638666D01*
X58947000Y-134990666D01*
X58947000Y-134990666D01*
G37*
G36*
X56447000Y-134990666D02*
G01*
X54845000Y-134990666D01*
X54845000Y-133638666D01*
X56447000Y-133638666D01*
X56447000Y-134990666D01*
X56447000Y-134990666D01*
G37*
G36*
X51859000Y-134958000D02*
G01*
X50307000Y-134958000D01*
X50307000Y-134506000D01*
X51859000Y-134506000D01*
X51859000Y-134958000D01*
X51859000Y-134958000D01*
G37*
G36*
X45959000Y-134958000D02*
G01*
X44407000Y-134958000D01*
X44407000Y-134506000D01*
X45959000Y-134506000D01*
X45959000Y-134958000D01*
X45959000Y-134958000D01*
G37*
G36*
X93921094Y-131603723D02*
G01*
X94080579Y-131635447D01*
X94381042Y-131759903D01*
X94651451Y-131940585D01*
X94881415Y-132170549D01*
X95062097Y-132440958D01*
X95186553Y-132741421D01*
X95186553Y-132741423D01*
X95250000Y-133060389D01*
X95250000Y-133385611D01*
X95226847Y-133502006D01*
X95186553Y-133704579D01*
X95062097Y-134005042D01*
X94881415Y-134275451D01*
X94651451Y-134505415D01*
X94381042Y-134686097D01*
X94080579Y-134810553D01*
X93921094Y-134842276D01*
X93761611Y-134874000D01*
X93436389Y-134874000D01*
X93276906Y-134842276D01*
X93117421Y-134810553D01*
X92816958Y-134686097D01*
X92546549Y-134505415D01*
X92316585Y-134275451D01*
X92135903Y-134005042D01*
X92011447Y-133704579D01*
X91971153Y-133502006D01*
X91948000Y-133385611D01*
X91948000Y-133060389D01*
X92011447Y-132741423D01*
X92011447Y-132741421D01*
X92135903Y-132440958D01*
X92316585Y-132170549D01*
X92546549Y-131940585D01*
X92816958Y-131759903D01*
X93117421Y-131635447D01*
X93276906Y-131603723D01*
X93436389Y-131572000D01*
X93761611Y-131572000D01*
X93921094Y-131603723D01*
X93921094Y-131603723D01*
G37*
G36*
X128402504Y-132838691D02*
G01*
X128446627Y-132843037D01*
X128616466Y-132894557D01*
X128668641Y-132922445D01*
X128772989Y-132978220D01*
X128910185Y-133090815D01*
X129022780Y-133228011D01*
X129047361Y-133274000D01*
X129106443Y-133384534D01*
X129157963Y-133554373D01*
X129175359Y-133731000D01*
X129157963Y-133907627D01*
X129106443Y-134077466D01*
X129106442Y-134077467D01*
X129022780Y-134233989D01*
X128910185Y-134371185D01*
X128772989Y-134483780D01*
X128668641Y-134539555D01*
X128616466Y-134567443D01*
X128446627Y-134618963D01*
X128402504Y-134623309D01*
X128314260Y-134632000D01*
X128225740Y-134632000D01*
X128137496Y-134623309D01*
X128093373Y-134618963D01*
X127923534Y-134567443D01*
X127871359Y-134539555D01*
X127767011Y-134483780D01*
X127629815Y-134371185D01*
X127517220Y-134233989D01*
X127433558Y-134077467D01*
X127433557Y-134077466D01*
X127382037Y-133907627D01*
X127364641Y-133731000D01*
X127382037Y-133554373D01*
X127433557Y-133384534D01*
X127492639Y-133274000D01*
X127517220Y-133228011D01*
X127629815Y-133090815D01*
X127767011Y-132978220D01*
X127871359Y-132922445D01*
X127923534Y-132894557D01*
X128093373Y-132843037D01*
X128137496Y-132838691D01*
X128225740Y-132830000D01*
X128314260Y-132830000D01*
X128402504Y-132838691D01*
X128402504Y-132838691D01*
G37*
G36*
X122923500Y-134544000D02*
G01*
X121678500Y-134544000D01*
X121678500Y-133934000D01*
X122923500Y-133934000D01*
X122923500Y-134544000D01*
X122923500Y-134544000D01*
G37*
G36*
X116573500Y-134544000D02*
G01*
X115328500Y-134544000D01*
X115328500Y-133934000D01*
X116573500Y-133934000D01*
X116573500Y-134544000D01*
X116573500Y-134544000D01*
G37*
G36*
X51859000Y-134308000D02*
G01*
X50307000Y-134308000D01*
X50307000Y-133856000D01*
X51859000Y-133856000D01*
X51859000Y-134308000D01*
X51859000Y-134308000D01*
G37*
G36*
X45959000Y-134283000D02*
G01*
X44407000Y-134283000D01*
X44407000Y-133881000D01*
X45959000Y-133881000D01*
X45959000Y-134283000D01*
X45959000Y-134283000D01*
G37*
G36*
X51859000Y-133658000D02*
G01*
X50307000Y-133658000D01*
X50307000Y-133206000D01*
X51859000Y-133206000D01*
X51859000Y-133658000D01*
X51859000Y-133658000D01*
G37*
G36*
X45959000Y-133658000D02*
G01*
X44407000Y-133658000D01*
X44407000Y-133206000D01*
X45959000Y-133206000D01*
X45959000Y-133658000D01*
X45959000Y-133658000D01*
G37*
G36*
X122923500Y-133274000D02*
G01*
X121678500Y-133274000D01*
X121678500Y-132664000D01*
X122923500Y-132664000D01*
X122923500Y-133274000D01*
X122923500Y-133274000D01*
G37*
G36*
X116573500Y-133274000D02*
G01*
X115328500Y-133274000D01*
X115328500Y-132664000D01*
X116573500Y-132664000D01*
X116573500Y-133274000D01*
X116573500Y-133274000D01*
G37*
G36*
X58947000Y-131994000D02*
G01*
X57345000Y-131994000D01*
X57345000Y-130642000D01*
X58947000Y-130642000D01*
X58947000Y-131994000D01*
X58947000Y-131994000D01*
G37*
G36*
X38249214Y-131994000D02*
G01*
X36647214Y-131994000D01*
X36647214Y-130642000D01*
X38249214Y-130642000D01*
X38249214Y-131994000D01*
X38249214Y-131994000D01*
G37*
G36*
X56447000Y-131994000D02*
G01*
X54845000Y-131994000D01*
X54845000Y-130642000D01*
X56447000Y-130642000D01*
X56447000Y-131994000D01*
X56447000Y-131994000D01*
G37*
G36*
X40749214Y-131994000D02*
G01*
X39147214Y-131994000D01*
X39147214Y-130642000D01*
X40749214Y-130642000D01*
X40749214Y-131994000D01*
X40749214Y-131994000D01*
G37*
G36*
X118677000Y-130851000D02*
G01*
X117075000Y-130851000D01*
X117075000Y-129499000D01*
X118677000Y-129499000D01*
X118677000Y-130851000D01*
X118677000Y-130851000D01*
G37*
G36*
X121177000Y-130851000D02*
G01*
X119575000Y-130851000D01*
X119575000Y-129499000D01*
X121177000Y-129499000D01*
X121177000Y-130851000D01*
X121177000Y-130851000D01*
G37*
G36*
X130321000Y-130851000D02*
G01*
X128719000Y-130851000D01*
X128719000Y-129499000D01*
X130321000Y-129499000D01*
X130321000Y-130851000D01*
X130321000Y-130851000D01*
G37*
G36*
X109747000Y-130851000D02*
G01*
X108145000Y-130851000D01*
X108145000Y-129499000D01*
X109747000Y-129499000D01*
X109747000Y-130851000D01*
X109747000Y-130851000D01*
G37*
G36*
X127821000Y-130851000D02*
G01*
X126219000Y-130851000D01*
X126219000Y-129499000D01*
X127821000Y-129499000D01*
X127821000Y-130851000D01*
X127821000Y-130851000D01*
G37*
G36*
X107247000Y-130851000D02*
G01*
X105645000Y-130851000D01*
X105645000Y-129499000D01*
X107247000Y-129499000D01*
X107247000Y-130851000D01*
X107247000Y-130851000D01*
G37*
G36*
X45185284Y-129151000D02*
G01*
X43783284Y-129151000D01*
X43783284Y-127549000D01*
X45185284Y-127549000D01*
X45185284Y-129151000D01*
X45185284Y-129151000D01*
G37*
G36*
X41358142Y-129151000D02*
G01*
X39956142Y-129151000D01*
X39956142Y-127549000D01*
X41358142Y-127549000D01*
X41358142Y-129151000D01*
X41358142Y-129151000D01*
G37*
G36*
X64201000Y-129151000D02*
G01*
X62799000Y-129151000D01*
X62799000Y-127549000D01*
X64201000Y-127549000D01*
X64201000Y-129151000D01*
X64201000Y-129151000D01*
G37*
G36*
X56546710Y-129151000D02*
G01*
X55144710Y-129151000D01*
X55144710Y-127549000D01*
X56546710Y-127549000D01*
X56546710Y-129151000D01*
X56546710Y-129151000D01*
G37*
G36*
X60373852Y-129151000D02*
G01*
X58971852Y-129151000D01*
X58971852Y-127549000D01*
X60373852Y-127549000D01*
X60373852Y-129151000D01*
X60373852Y-129151000D01*
G37*
G36*
X37531000Y-129151000D02*
G01*
X36129000Y-129151000D01*
X36129000Y-127549000D01*
X37531000Y-127549000D01*
X37531000Y-129151000D01*
X37531000Y-129151000D01*
G37*
G36*
X52724568Y-129051000D02*
G01*
X51372568Y-129051000D01*
X51372568Y-127449000D01*
X52724568Y-127449000D01*
X52724568Y-129051000D01*
X52724568Y-129051000D01*
G37*
G36*
X48957426Y-129051000D02*
G01*
X47605426Y-129051000D01*
X47605426Y-127449000D01*
X48957426Y-127449000D01*
X48957426Y-129051000D01*
X48957426Y-129051000D01*
G37*
G36*
X108033142Y-127881000D02*
G01*
X106631142Y-127881000D01*
X106631142Y-126279000D01*
X108033142Y-126279000D01*
X108033142Y-127881000D01*
X108033142Y-127881000D01*
G37*
G36*
X127048852Y-127881000D02*
G01*
X125646852Y-127881000D01*
X125646852Y-126279000D01*
X127048852Y-126279000D01*
X127048852Y-127881000D01*
X127048852Y-127881000D01*
G37*
G36*
X123221710Y-127881000D02*
G01*
X121819710Y-127881000D01*
X121819710Y-126279000D01*
X123221710Y-126279000D01*
X123221710Y-127881000D01*
X123221710Y-127881000D01*
G37*
G36*
X130876000Y-127881000D02*
G01*
X129474000Y-127881000D01*
X129474000Y-126279000D01*
X130876000Y-126279000D01*
X130876000Y-127881000D01*
X130876000Y-127881000D01*
G37*
G36*
X111860284Y-127881000D02*
G01*
X110458284Y-127881000D01*
X110458284Y-126279000D01*
X111860284Y-126279000D01*
X111860284Y-127881000D01*
X111860284Y-127881000D01*
G37*
G36*
X104206000Y-127881000D02*
G01*
X102804000Y-127881000D01*
X102804000Y-126279000D01*
X104206000Y-126279000D01*
X104206000Y-127881000D01*
X104206000Y-127881000D01*
G37*
G36*
X115632426Y-127781000D02*
G01*
X114280426Y-127781000D01*
X114280426Y-126179000D01*
X115632426Y-126179000D01*
X115632426Y-127781000D01*
X115632426Y-127781000D01*
G37*
G36*
X119399568Y-127781000D02*
G01*
X118047568Y-127781000D01*
X118047568Y-126179000D01*
X119399568Y-126179000D01*
X119399568Y-127781000D01*
X119399568Y-127781000D01*
G37*
G36*
X48957426Y-126551000D02*
G01*
X47605426Y-126551000D01*
X47605426Y-124949000D01*
X48957426Y-124949000D01*
X48957426Y-126551000D01*
X48957426Y-126551000D01*
G37*
G36*
X52724568Y-126551000D02*
G01*
X51372568Y-126551000D01*
X51372568Y-124949000D01*
X52724568Y-124949000D01*
X52724568Y-126551000D01*
X52724568Y-126551000D01*
G37*
G36*
X45185284Y-126451000D02*
G01*
X43783284Y-126451000D01*
X43783284Y-124849000D01*
X45185284Y-124849000D01*
X45185284Y-126451000D01*
X45185284Y-126451000D01*
G37*
G36*
X64201000Y-126451000D02*
G01*
X62799000Y-126451000D01*
X62799000Y-124849000D01*
X64201000Y-124849000D01*
X64201000Y-126451000D01*
X64201000Y-126451000D01*
G37*
G36*
X60373852Y-126451000D02*
G01*
X58971852Y-126451000D01*
X58971852Y-124849000D01*
X60373852Y-124849000D01*
X60373852Y-126451000D01*
X60373852Y-126451000D01*
G37*
G36*
X56546710Y-126451000D02*
G01*
X55144710Y-126451000D01*
X55144710Y-124849000D01*
X56546710Y-124849000D01*
X56546710Y-126451000D01*
X56546710Y-126451000D01*
G37*
G36*
X41358142Y-126451000D02*
G01*
X39956142Y-126451000D01*
X39956142Y-124849000D01*
X41358142Y-124849000D01*
X41358142Y-126451000D01*
X41358142Y-126451000D01*
G37*
G36*
X37531000Y-126451000D02*
G01*
X36129000Y-126451000D01*
X36129000Y-124849000D01*
X37531000Y-124849000D01*
X37531000Y-126451000D01*
X37531000Y-126451000D01*
G37*
G36*
X119399568Y-125281000D02*
G01*
X118047568Y-125281000D01*
X118047568Y-123679000D01*
X119399568Y-123679000D01*
X119399568Y-125281000D01*
X119399568Y-125281000D01*
G37*
G36*
X115632426Y-125281000D02*
G01*
X114280426Y-125281000D01*
X114280426Y-123679000D01*
X115632426Y-123679000D01*
X115632426Y-125281000D01*
X115632426Y-125281000D01*
G37*
G36*
X130876000Y-125181000D02*
G01*
X129474000Y-125181000D01*
X129474000Y-123579000D01*
X130876000Y-123579000D01*
X130876000Y-125181000D01*
X130876000Y-125181000D01*
G37*
G36*
X127048852Y-125181000D02*
G01*
X125646852Y-125181000D01*
X125646852Y-123579000D01*
X127048852Y-123579000D01*
X127048852Y-125181000D01*
X127048852Y-125181000D01*
G37*
G36*
X123221710Y-125181000D02*
G01*
X121819710Y-125181000D01*
X121819710Y-123579000D01*
X123221710Y-123579000D01*
X123221710Y-125181000D01*
X123221710Y-125181000D01*
G37*
G36*
X111860284Y-125181000D02*
G01*
X110458284Y-125181000D01*
X110458284Y-123579000D01*
X111860284Y-123579000D01*
X111860284Y-125181000D01*
X111860284Y-125181000D01*
G37*
G36*
X104206000Y-125181000D02*
G01*
X102804000Y-125181000D01*
X102804000Y-123579000D01*
X104206000Y-123579000D01*
X104206000Y-125181000D01*
X104206000Y-125181000D01*
G37*
G36*
X108033142Y-125181000D02*
G01*
X106631142Y-125181000D01*
X106631142Y-123579000D01*
X108033142Y-123579000D01*
X108033142Y-125181000D01*
X108033142Y-125181000D01*
G37*
G36*
X45125284Y-122801000D02*
G01*
X43723284Y-122801000D01*
X43723284Y-121199000D01*
X45125284Y-121199000D01*
X45125284Y-122801000D01*
X45125284Y-122801000D01*
G37*
G36*
X56606710Y-122801000D02*
G01*
X55204710Y-122801000D01*
X55204710Y-121199000D01*
X56606710Y-121199000D01*
X56606710Y-122801000D01*
X56606710Y-122801000D01*
G37*
G36*
X52779568Y-122801000D02*
G01*
X51377568Y-122801000D01*
X51377568Y-121199000D01*
X52779568Y-121199000D01*
X52779568Y-122801000D01*
X52779568Y-122801000D01*
G37*
G36*
X37531000Y-122801000D02*
G01*
X36129000Y-122801000D01*
X36129000Y-121199000D01*
X37531000Y-121199000D01*
X37531000Y-122801000D01*
X37531000Y-122801000D01*
G37*
G36*
X48952426Y-122801000D02*
G01*
X47550426Y-122801000D01*
X47550426Y-121199000D01*
X48952426Y-121199000D01*
X48952426Y-122801000D01*
X48952426Y-122801000D01*
G37*
G36*
X64201000Y-122801000D02*
G01*
X62799000Y-122801000D01*
X62799000Y-121199000D01*
X64201000Y-121199000D01*
X64201000Y-122801000D01*
X64201000Y-122801000D01*
G37*
G36*
X41303142Y-122701000D02*
G01*
X39951142Y-122701000D01*
X39951142Y-121099000D01*
X41303142Y-121099000D01*
X41303142Y-122701000D01*
X41303142Y-122701000D01*
G37*
G36*
X60378852Y-122701000D02*
G01*
X59026852Y-122701000D01*
X59026852Y-121099000D01*
X60378852Y-121099000D01*
X60378852Y-122701000D01*
X60378852Y-122701000D01*
G37*
G36*
X93720226Y-120553702D02*
G01*
X93720229Y-120553703D01*
X93720228Y-120553703D01*
X93875100Y-120617853D01*
X94014481Y-120710985D01*
X94133015Y-120829519D01*
X94226147Y-120968900D01*
X94279291Y-121097202D01*
X94290298Y-121123774D01*
X94323000Y-121288182D01*
X94323000Y-121455818D01*
X94290298Y-121620226D01*
X94290297Y-121620228D01*
X94226147Y-121775100D01*
X94133015Y-121914481D01*
X94014481Y-122033015D01*
X93875100Y-122126147D01*
X93746798Y-122179291D01*
X93720226Y-122190298D01*
X93555818Y-122223000D01*
X93388182Y-122223000D01*
X93223774Y-122190298D01*
X93197202Y-122179291D01*
X93068900Y-122126147D01*
X92929519Y-122033015D01*
X92810985Y-121914481D01*
X92717853Y-121775100D01*
X92653703Y-121620228D01*
X92653702Y-121620226D01*
X92621000Y-121455818D01*
X92621000Y-121288182D01*
X92653702Y-121123774D01*
X92664709Y-121097202D01*
X92717853Y-120968900D01*
X92810985Y-120829519D01*
X92929519Y-120710985D01*
X93068900Y-120617853D01*
X93223772Y-120553703D01*
X93223771Y-120553703D01*
X93223774Y-120553702D01*
X93388182Y-120521000D01*
X93555818Y-120521000D01*
X93720226Y-120553702D01*
X93720226Y-120553702D01*
G37*
G36*
X84957226Y-120553702D02*
G01*
X84957229Y-120553703D01*
X84957228Y-120553703D01*
X85112100Y-120617853D01*
X85251481Y-120710985D01*
X85370015Y-120829519D01*
X85463147Y-120968900D01*
X85516291Y-121097202D01*
X85527298Y-121123774D01*
X85560000Y-121288182D01*
X85560000Y-121455818D01*
X85527298Y-121620226D01*
X85527297Y-121620228D01*
X85463147Y-121775100D01*
X85370015Y-121914481D01*
X85251481Y-122033015D01*
X85112100Y-122126147D01*
X84983798Y-122179291D01*
X84957226Y-122190298D01*
X84792818Y-122223000D01*
X84625182Y-122223000D01*
X84460774Y-122190298D01*
X84434202Y-122179291D01*
X84305900Y-122126147D01*
X84166519Y-122033015D01*
X84047985Y-121914481D01*
X83954853Y-121775100D01*
X83890703Y-121620228D01*
X83890702Y-121620226D01*
X83858000Y-121455818D01*
X83858000Y-121288182D01*
X83890702Y-121123774D01*
X83901709Y-121097202D01*
X83954853Y-120968900D01*
X84047985Y-120829519D01*
X84166519Y-120710985D01*
X84305900Y-120617853D01*
X84460772Y-120553703D01*
X84460771Y-120553703D01*
X84460774Y-120553702D01*
X84625182Y-120521000D01*
X84792818Y-120521000D01*
X84957226Y-120553702D01*
X84957226Y-120553702D01*
G37*
G36*
X72935000Y-121957000D02*
G01*
X71083000Y-121957000D01*
X71083000Y-120105000D01*
X72935000Y-120105000D01*
X72935000Y-121957000D01*
X72935000Y-121957000D01*
G37*
G36*
X104206000Y-121531000D02*
G01*
X102804000Y-121531000D01*
X102804000Y-119929000D01*
X104206000Y-119929000D01*
X104206000Y-121531000D01*
X104206000Y-121531000D01*
G37*
G36*
X115627426Y-121531000D02*
G01*
X114225426Y-121531000D01*
X114225426Y-119929000D01*
X115627426Y-119929000D01*
X115627426Y-121531000D01*
X115627426Y-121531000D01*
G37*
G36*
X123281710Y-121531000D02*
G01*
X121879710Y-121531000D01*
X121879710Y-119929000D01*
X123281710Y-119929000D01*
X123281710Y-121531000D01*
X123281710Y-121531000D01*
G37*
G36*
X130876000Y-121531000D02*
G01*
X129474000Y-121531000D01*
X129474000Y-119929000D01*
X130876000Y-119929000D01*
X130876000Y-121531000D01*
X130876000Y-121531000D01*
G37*
G36*
X111800284Y-121531000D02*
G01*
X110398284Y-121531000D01*
X110398284Y-119929000D01*
X111800284Y-119929000D01*
X111800284Y-121531000D01*
X111800284Y-121531000D01*
G37*
G36*
X119454568Y-121531000D02*
G01*
X118052568Y-121531000D01*
X118052568Y-119929000D01*
X119454568Y-119929000D01*
X119454568Y-121531000D01*
X119454568Y-121531000D01*
G37*
G36*
X127053852Y-121431000D02*
G01*
X125701852Y-121431000D01*
X125701852Y-119829000D01*
X127053852Y-119829000D01*
X127053852Y-121431000D01*
X127053852Y-121431000D01*
G37*
G36*
X107978142Y-121431000D02*
G01*
X106626142Y-121431000D01*
X106626142Y-119829000D01*
X107978142Y-119829000D01*
X107978142Y-121431000D01*
X107978142Y-121431000D01*
G37*
G36*
X60378852Y-120201000D02*
G01*
X59026852Y-120201000D01*
X59026852Y-118599000D01*
X60378852Y-118599000D01*
X60378852Y-120201000D01*
X60378852Y-120201000D01*
G37*
G36*
X41303142Y-120201000D02*
G01*
X39951142Y-120201000D01*
X39951142Y-118599000D01*
X41303142Y-118599000D01*
X41303142Y-120201000D01*
X41303142Y-120201000D01*
G37*
G36*
X48952426Y-120101000D02*
G01*
X47550426Y-120101000D01*
X47550426Y-118499000D01*
X48952426Y-118499000D01*
X48952426Y-120101000D01*
X48952426Y-120101000D01*
G37*
G36*
X64201000Y-120101000D02*
G01*
X62799000Y-120101000D01*
X62799000Y-118499000D01*
X64201000Y-118499000D01*
X64201000Y-120101000D01*
X64201000Y-120101000D01*
G37*
G36*
X37531000Y-120101000D02*
G01*
X36129000Y-120101000D01*
X36129000Y-118499000D01*
X37531000Y-118499000D01*
X37531000Y-120101000D01*
X37531000Y-120101000D01*
G37*
G36*
X52779568Y-120101000D02*
G01*
X51377568Y-120101000D01*
X51377568Y-118499000D01*
X52779568Y-118499000D01*
X52779568Y-120101000D01*
X52779568Y-120101000D01*
G37*
G36*
X45125284Y-120101000D02*
G01*
X43723284Y-120101000D01*
X43723284Y-118499000D01*
X45125284Y-118499000D01*
X45125284Y-120101000D01*
X45125284Y-120101000D01*
G37*
G36*
X56606710Y-120101000D02*
G01*
X55204710Y-120101000D01*
X55204710Y-118499000D01*
X56606710Y-118499000D01*
X56606710Y-120101000D01*
X56606710Y-120101000D01*
G37*
G36*
X85560000Y-119723000D02*
G01*
X83858000Y-119723000D01*
X83858000Y-118021000D01*
X85560000Y-118021000D01*
X85560000Y-119723000D01*
X85560000Y-119723000D01*
G37*
G36*
X94323000Y-119723000D02*
G01*
X92621000Y-119723000D01*
X92621000Y-118021000D01*
X94323000Y-118021000D01*
X94323000Y-119723000D01*
X94323000Y-119723000D01*
G37*
G36*
X72279104Y-117640585D02*
G01*
X72447626Y-117710389D01*
X72599291Y-117811728D01*
X72728272Y-117940709D01*
X72829611Y-118092374D01*
X72899415Y-118260896D01*
X72935000Y-118439797D01*
X72935000Y-118622203D01*
X72899415Y-118801104D01*
X72829611Y-118969626D01*
X72728272Y-119121291D01*
X72599291Y-119250272D01*
X72447626Y-119351611D01*
X72279104Y-119421415D01*
X72100203Y-119457000D01*
X71917797Y-119457000D01*
X71738896Y-119421415D01*
X71570374Y-119351611D01*
X71418709Y-119250272D01*
X71289728Y-119121291D01*
X71188389Y-118969626D01*
X71118585Y-118801104D01*
X71083000Y-118622203D01*
X71083000Y-118439797D01*
X71118585Y-118260896D01*
X71188389Y-118092374D01*
X71289728Y-117940709D01*
X71418709Y-117811728D01*
X71570374Y-117710389D01*
X71738896Y-117640585D01*
X71917797Y-117605000D01*
X72100203Y-117605000D01*
X72279104Y-117640585D01*
X72279104Y-117640585D01*
G37*
G36*
X127053852Y-118931000D02*
G01*
X125701852Y-118931000D01*
X125701852Y-117329000D01*
X127053852Y-117329000D01*
X127053852Y-118931000D01*
X127053852Y-118931000D01*
G37*
G36*
X107978142Y-118931000D02*
G01*
X106626142Y-118931000D01*
X106626142Y-117329000D01*
X107978142Y-117329000D01*
X107978142Y-118931000D01*
X107978142Y-118931000D01*
G37*
G36*
X115627426Y-118831000D02*
G01*
X114225426Y-118831000D01*
X114225426Y-117229000D01*
X115627426Y-117229000D01*
X115627426Y-118831000D01*
X115627426Y-118831000D01*
G37*
G36*
X130876000Y-118831000D02*
G01*
X129474000Y-118831000D01*
X129474000Y-117229000D01*
X130876000Y-117229000D01*
X130876000Y-118831000D01*
X130876000Y-118831000D01*
G37*
G36*
X123281710Y-118831000D02*
G01*
X121879710Y-118831000D01*
X121879710Y-117229000D01*
X123281710Y-117229000D01*
X123281710Y-118831000D01*
X123281710Y-118831000D01*
G37*
G36*
X104206000Y-118831000D02*
G01*
X102804000Y-118831000D01*
X102804000Y-117229000D01*
X104206000Y-117229000D01*
X104206000Y-118831000D01*
X104206000Y-118831000D01*
G37*
G36*
X119454568Y-118831000D02*
G01*
X118052568Y-118831000D01*
X118052568Y-117229000D01*
X119454568Y-117229000D01*
X119454568Y-118831000D01*
X119454568Y-118831000D01*
G37*
G36*
X111800284Y-118831000D02*
G01*
X110398284Y-118831000D01*
X110398284Y-117229000D01*
X111800284Y-117229000D01*
X111800284Y-118831000D01*
X111800284Y-118831000D01*
G37*
G36*
X72279104Y-115140585D02*
G01*
X72447626Y-115210389D01*
X72599291Y-115311728D01*
X72728272Y-115440709D01*
X72829611Y-115592374D01*
X72899415Y-115760896D01*
X72935000Y-115939797D01*
X72935000Y-116122203D01*
X72899415Y-116301104D01*
X72829611Y-116469626D01*
X72728272Y-116621291D01*
X72599291Y-116750272D01*
X72447626Y-116851611D01*
X72279104Y-116921415D01*
X72100203Y-116957000D01*
X71917797Y-116957000D01*
X71738896Y-116921415D01*
X71570374Y-116851611D01*
X71418709Y-116750272D01*
X71289728Y-116621291D01*
X71188389Y-116469626D01*
X71118585Y-116301104D01*
X71083000Y-116122203D01*
X71083000Y-115939797D01*
X71118585Y-115760896D01*
X71188389Y-115592374D01*
X71289728Y-115440709D01*
X71418709Y-115311728D01*
X71570374Y-115210389D01*
X71738896Y-115140585D01*
X71917797Y-115105000D01*
X72100203Y-115105000D01*
X72279104Y-115140585D01*
X72279104Y-115140585D01*
G37*
G36*
X37681000Y-115151000D02*
G01*
X35979000Y-115151000D01*
X35979000Y-113449000D01*
X37681000Y-113449000D01*
X37681000Y-115151000D01*
X37681000Y-115151000D01*
G37*
G36*
X39578226Y-113481702D02*
G01*
X39578229Y-113481703D01*
X39578228Y-113481703D01*
X39733100Y-113545853D01*
X39872481Y-113638985D01*
X39991015Y-113757519D01*
X40084147Y-113896900D01*
X40137291Y-114025202D01*
X40148298Y-114051774D01*
X40181000Y-114216182D01*
X40181000Y-114383818D01*
X40148298Y-114548226D01*
X40148297Y-114548228D01*
X40084147Y-114703100D01*
X39991015Y-114842481D01*
X39872481Y-114961015D01*
X39733100Y-115054147D01*
X39610330Y-115105000D01*
X39578226Y-115118298D01*
X39413818Y-115151000D01*
X39246182Y-115151000D01*
X39081774Y-115118298D01*
X39049670Y-115105000D01*
X38926900Y-115054147D01*
X38787519Y-114961015D01*
X38668985Y-114842481D01*
X38575853Y-114703100D01*
X38511703Y-114548228D01*
X38511702Y-114548226D01*
X38479000Y-114383818D01*
X38479000Y-114216182D01*
X38511702Y-114051774D01*
X38522709Y-114025202D01*
X38575853Y-113896900D01*
X38668985Y-113757519D01*
X38787519Y-113638985D01*
X38926900Y-113545853D01*
X39081772Y-113481703D01*
X39081771Y-113481703D01*
X39081774Y-113481702D01*
X39246182Y-113449000D01*
X39413818Y-113449000D01*
X39578226Y-113481702D01*
X39578226Y-113481702D01*
G37*
G36*
X47423226Y-113481702D02*
G01*
X47423229Y-113481703D01*
X47423228Y-113481703D01*
X47578100Y-113545853D01*
X47717481Y-113638985D01*
X47836015Y-113757519D01*
X47929147Y-113896900D01*
X47982291Y-114025202D01*
X47993298Y-114051774D01*
X48026000Y-114216182D01*
X48026000Y-114383818D01*
X47993298Y-114548226D01*
X47993297Y-114548228D01*
X47929147Y-114703100D01*
X47836015Y-114842481D01*
X47717481Y-114961015D01*
X47578100Y-115054147D01*
X47455330Y-115105000D01*
X47423226Y-115118298D01*
X47258818Y-115151000D01*
X47091182Y-115151000D01*
X46926774Y-115118298D01*
X46894670Y-115105000D01*
X46771900Y-115054147D01*
X46632519Y-114961015D01*
X46513985Y-114842481D01*
X46420853Y-114703100D01*
X46356703Y-114548228D01*
X46356702Y-114548226D01*
X46324000Y-114383818D01*
X46324000Y-114216182D01*
X46356702Y-114051774D01*
X46367709Y-114025202D01*
X46420853Y-113896900D01*
X46513985Y-113757519D01*
X46632519Y-113638985D01*
X46771900Y-113545853D01*
X46926772Y-113481703D01*
X46926771Y-113481703D01*
X46926774Y-113481702D01*
X47091182Y-113449000D01*
X47258818Y-113449000D01*
X47423226Y-113481702D01*
X47423226Y-113481702D01*
G37*
G36*
X45526000Y-115151000D02*
G01*
X43824000Y-115151000D01*
X43824000Y-113449000D01*
X45526000Y-113449000D01*
X45526000Y-115151000D01*
X45526000Y-115151000D01*
G37*
G36*
X52768226Y-113481702D02*
G01*
X52768229Y-113481703D01*
X52768228Y-113481703D01*
X52923100Y-113545853D01*
X53062481Y-113638985D01*
X53181015Y-113757519D01*
X53274147Y-113896900D01*
X53327291Y-114025202D01*
X53338298Y-114051774D01*
X53371000Y-114216182D01*
X53371000Y-114383818D01*
X53338298Y-114548226D01*
X53338297Y-114548228D01*
X53274147Y-114703100D01*
X53181015Y-114842481D01*
X53062481Y-114961015D01*
X52923100Y-115054147D01*
X52800330Y-115105000D01*
X52768226Y-115118298D01*
X52603818Y-115151000D01*
X52436182Y-115151000D01*
X52271774Y-115118298D01*
X52239670Y-115105000D01*
X52116900Y-115054147D01*
X51977519Y-114961015D01*
X51858985Y-114842481D01*
X51765853Y-114703100D01*
X51701703Y-114548228D01*
X51701702Y-114548226D01*
X51669000Y-114383818D01*
X51669000Y-114216182D01*
X51701702Y-114051774D01*
X51712709Y-114025202D01*
X51765853Y-113896900D01*
X51858985Y-113757519D01*
X51977519Y-113638985D01*
X52116900Y-113545853D01*
X52271772Y-113481703D01*
X52271771Y-113481703D01*
X52271774Y-113481702D01*
X52436182Y-113449000D01*
X52603818Y-113449000D01*
X52768226Y-113481702D01*
X52768226Y-113481702D01*
G37*
G36*
X63716000Y-115151000D02*
G01*
X62014000Y-115151000D01*
X62014000Y-113449000D01*
X63716000Y-113449000D01*
X63716000Y-115151000D01*
X63716000Y-115151000D01*
G37*
G36*
X60613226Y-113481702D02*
G01*
X60613229Y-113481703D01*
X60613228Y-113481703D01*
X60768100Y-113545853D01*
X60907481Y-113638985D01*
X61026015Y-113757519D01*
X61119147Y-113896900D01*
X61172291Y-114025202D01*
X61183298Y-114051774D01*
X61216000Y-114216182D01*
X61216000Y-114383818D01*
X61183298Y-114548226D01*
X61183297Y-114548228D01*
X61119147Y-114703100D01*
X61026015Y-114842481D01*
X60907481Y-114961015D01*
X60768100Y-115054147D01*
X60645330Y-115105000D01*
X60613226Y-115118298D01*
X60448818Y-115151000D01*
X60281182Y-115151000D01*
X60116774Y-115118298D01*
X60084670Y-115105000D01*
X59961900Y-115054147D01*
X59822519Y-114961015D01*
X59703985Y-114842481D01*
X59610853Y-114703100D01*
X59546703Y-114548228D01*
X59546702Y-114548226D01*
X59514000Y-114383818D01*
X59514000Y-114216182D01*
X59546702Y-114051774D01*
X59557709Y-114025202D01*
X59610853Y-113896900D01*
X59703985Y-113757519D01*
X59822519Y-113638985D01*
X59961900Y-113545853D01*
X60116772Y-113481703D01*
X60116771Y-113481703D01*
X60116774Y-113481702D01*
X60281182Y-113449000D01*
X60448818Y-113449000D01*
X60613226Y-113481702D01*
X60613226Y-113481702D01*
G37*
G36*
X55871000Y-115151000D02*
G01*
X54169000Y-115151000D01*
X54169000Y-113449000D01*
X55871000Y-113449000D01*
X55871000Y-115151000D01*
X55871000Y-115151000D01*
G37*
G36*
X78933000Y-114292000D02*
G01*
X77531000Y-114292000D01*
X77531000Y-112690000D01*
X78933000Y-112690000D01*
X78933000Y-114292000D01*
X78933000Y-114292000D01*
G37*
G36*
X82235000Y-114292000D02*
G01*
X80833000Y-114292000D01*
X80833000Y-112690000D01*
X82235000Y-112690000D01*
X82235000Y-114292000D01*
X82235000Y-114292000D01*
G37*
G36*
X85258000Y-114192000D02*
G01*
X83906000Y-114192000D01*
X83906000Y-112590000D01*
X85258000Y-112590000D01*
X85258000Y-114192000D01*
X85258000Y-114192000D01*
G37*
G36*
X91275000Y-114192000D02*
G01*
X89573000Y-114192000D01*
X89573000Y-110090000D01*
X91275000Y-110090000D01*
X91275000Y-114192000D01*
X91275000Y-114192000D01*
G37*
G36*
X96942000Y-114192000D02*
G01*
X95590000Y-114192000D01*
X95590000Y-112590000D01*
X96942000Y-112590000D01*
X96942000Y-114192000D01*
X96942000Y-114192000D01*
G37*
G36*
X106253226Y-112211702D02*
G01*
X106253229Y-112211703D01*
X106253228Y-112211703D01*
X106408100Y-112275853D01*
X106547481Y-112368985D01*
X106666015Y-112487519D01*
X106759147Y-112626900D01*
X106806823Y-112742000D01*
X106823298Y-112781774D01*
X106856000Y-112946182D01*
X106856000Y-113113818D01*
X106823298Y-113278226D01*
X106823297Y-113278228D01*
X106759147Y-113433100D01*
X106666015Y-113572481D01*
X106547481Y-113691015D01*
X106408100Y-113784147D01*
X106279798Y-113837291D01*
X106253226Y-113848298D01*
X106088818Y-113881000D01*
X105921182Y-113881000D01*
X105756774Y-113848298D01*
X105730202Y-113837291D01*
X105601900Y-113784147D01*
X105462519Y-113691015D01*
X105343985Y-113572481D01*
X105250853Y-113433100D01*
X105186703Y-113278228D01*
X105186702Y-113278226D01*
X105154000Y-113113818D01*
X105154000Y-112946182D01*
X105186702Y-112781774D01*
X105203177Y-112742000D01*
X105250853Y-112626900D01*
X105343985Y-112487519D01*
X105462519Y-112368985D01*
X105601900Y-112275853D01*
X105756772Y-112211703D01*
X105756771Y-112211703D01*
X105756774Y-112211702D01*
X105921182Y-112179000D01*
X106088818Y-112179000D01*
X106253226Y-112211702D01*
X106253226Y-112211702D01*
G37*
G36*
X104356000Y-113881000D02*
G01*
X102654000Y-113881000D01*
X102654000Y-112179000D01*
X104356000Y-112179000D01*
X104356000Y-113881000D01*
X104356000Y-113881000D01*
G37*
G36*
X119443226Y-112211702D02*
G01*
X119443229Y-112211703D01*
X119443228Y-112211703D01*
X119598100Y-112275853D01*
X119737481Y-112368985D01*
X119856015Y-112487519D01*
X119949147Y-112626900D01*
X119996823Y-112742000D01*
X120013298Y-112781774D01*
X120046000Y-112946182D01*
X120046000Y-113113818D01*
X120013298Y-113278226D01*
X120013297Y-113278228D01*
X119949147Y-113433100D01*
X119856015Y-113572481D01*
X119737481Y-113691015D01*
X119598100Y-113784147D01*
X119469798Y-113837291D01*
X119443226Y-113848298D01*
X119278818Y-113881000D01*
X119111182Y-113881000D01*
X118946774Y-113848298D01*
X118920202Y-113837291D01*
X118791900Y-113784147D01*
X118652519Y-113691015D01*
X118533985Y-113572481D01*
X118440853Y-113433100D01*
X118376703Y-113278228D01*
X118376702Y-113278226D01*
X118344000Y-113113818D01*
X118344000Y-112946182D01*
X118376702Y-112781774D01*
X118393177Y-112742000D01*
X118440853Y-112626900D01*
X118533985Y-112487519D01*
X118652519Y-112368985D01*
X118791900Y-112275853D01*
X118946772Y-112211703D01*
X118946771Y-112211703D01*
X118946774Y-112211702D01*
X119111182Y-112179000D01*
X119278818Y-112179000D01*
X119443226Y-112211702D01*
X119443226Y-112211702D01*
G37*
G36*
X122546000Y-113881000D02*
G01*
X120844000Y-113881000D01*
X120844000Y-112179000D01*
X122546000Y-112179000D01*
X122546000Y-113881000D01*
X122546000Y-113881000D01*
G37*
G36*
X114098226Y-112211702D02*
G01*
X114098229Y-112211703D01*
X114098228Y-112211703D01*
X114253100Y-112275853D01*
X114392481Y-112368985D01*
X114511015Y-112487519D01*
X114604147Y-112626900D01*
X114651823Y-112742000D01*
X114668298Y-112781774D01*
X114701000Y-112946182D01*
X114701000Y-113113818D01*
X114668298Y-113278226D01*
X114668297Y-113278228D01*
X114604147Y-113433100D01*
X114511015Y-113572481D01*
X114392481Y-113691015D01*
X114253100Y-113784147D01*
X114124798Y-113837291D01*
X114098226Y-113848298D01*
X113933818Y-113881000D01*
X113766182Y-113881000D01*
X113601774Y-113848298D01*
X113575202Y-113837291D01*
X113446900Y-113784147D01*
X113307519Y-113691015D01*
X113188985Y-113572481D01*
X113095853Y-113433100D01*
X113031703Y-113278228D01*
X113031702Y-113278226D01*
X112999000Y-113113818D01*
X112999000Y-112946182D01*
X113031702Y-112781774D01*
X113048177Y-112742000D01*
X113095853Y-112626900D01*
X113188985Y-112487519D01*
X113307519Y-112368985D01*
X113446900Y-112275853D01*
X113601772Y-112211703D01*
X113601771Y-112211703D01*
X113601774Y-112211702D01*
X113766182Y-112179000D01*
X113933818Y-112179000D01*
X114098226Y-112211702D01*
X114098226Y-112211702D01*
G37*
G36*
X112201000Y-113881000D02*
G01*
X110499000Y-113881000D01*
X110499000Y-112179000D01*
X112201000Y-112179000D01*
X112201000Y-113881000D01*
X112201000Y-113881000D01*
G37*
G36*
X127288226Y-112211702D02*
G01*
X127288229Y-112211703D01*
X127288228Y-112211703D01*
X127443100Y-112275853D01*
X127582481Y-112368985D01*
X127701015Y-112487519D01*
X127794147Y-112626900D01*
X127841823Y-112742000D01*
X127858298Y-112781774D01*
X127891000Y-112946182D01*
X127891000Y-113113818D01*
X127858298Y-113278226D01*
X127858297Y-113278228D01*
X127794147Y-113433100D01*
X127701015Y-113572481D01*
X127582481Y-113691015D01*
X127443100Y-113784147D01*
X127314798Y-113837291D01*
X127288226Y-113848298D01*
X127123818Y-113881000D01*
X126956182Y-113881000D01*
X126791774Y-113848298D01*
X126765202Y-113837291D01*
X126636900Y-113784147D01*
X126497519Y-113691015D01*
X126378985Y-113572481D01*
X126285853Y-113433100D01*
X126221703Y-113278228D01*
X126221702Y-113278226D01*
X126189000Y-113113818D01*
X126189000Y-112946182D01*
X126221702Y-112781774D01*
X126238177Y-112742000D01*
X126285853Y-112626900D01*
X126378985Y-112487519D01*
X126497519Y-112368985D01*
X126636900Y-112275853D01*
X126791772Y-112211703D01*
X126791771Y-112211703D01*
X126791774Y-112211702D01*
X126956182Y-112179000D01*
X127123818Y-112179000D01*
X127288226Y-112211702D01*
X127288226Y-112211702D01*
G37*
G36*
X130391000Y-113881000D02*
G01*
X128689000Y-113881000D01*
X128689000Y-112179000D01*
X130391000Y-112179000D01*
X130391000Y-113881000D01*
X130391000Y-113881000D01*
G37*
G36*
X93375000Y-113392000D02*
G01*
X91873000Y-113392000D01*
X91873000Y-110890000D01*
X93375000Y-110890000D01*
X93375000Y-113392000D01*
X93375000Y-113392000D01*
G37*
G36*
X88975000Y-113392000D02*
G01*
X87473000Y-113392000D01*
X87473000Y-110890000D01*
X88975000Y-110890000D01*
X88975000Y-113392000D01*
X88975000Y-113392000D01*
G37*
G36*
X85258000Y-111692000D02*
G01*
X83906000Y-111692000D01*
X83906000Y-110090000D01*
X85258000Y-110090000D01*
X85258000Y-111692000D01*
X85258000Y-111692000D01*
G37*
G36*
X96942000Y-111692000D02*
G01*
X95590000Y-111692000D01*
X95590000Y-110090000D01*
X96942000Y-110090000D01*
X96942000Y-111692000D01*
X96942000Y-111692000D01*
G37*
G36*
X78933000Y-111592000D02*
G01*
X77531000Y-111592000D01*
X77531000Y-109990000D01*
X78933000Y-109990000D01*
X78933000Y-111592000D01*
X78933000Y-111592000D01*
G37*
G36*
X82235000Y-111592000D02*
G01*
X80833000Y-111592000D01*
X80833000Y-109990000D01*
X82235000Y-109990000D01*
X82235000Y-111592000D01*
X82235000Y-111592000D01*
G37*
G36*
X50932504Y-107057691D02*
G01*
X50976627Y-107062037D01*
X51146466Y-107113557D01*
X51198641Y-107141445D01*
X51302989Y-107197220D01*
X51440185Y-107309815D01*
X51552780Y-107447011D01*
X51589891Y-107516442D01*
X51636443Y-107603534D01*
X51687963Y-107773373D01*
X51705359Y-107950000D01*
X51687963Y-108126627D01*
X51636443Y-108296466D01*
X51636442Y-108296467D01*
X51552780Y-108452989D01*
X51440185Y-108590185D01*
X51302989Y-108702780D01*
X51198641Y-108758555D01*
X51146466Y-108786443D01*
X50976627Y-108837963D01*
X50932504Y-108842309D01*
X50844260Y-108851000D01*
X50755740Y-108851000D01*
X50667496Y-108842309D01*
X50623373Y-108837963D01*
X50453534Y-108786443D01*
X50401359Y-108758555D01*
X50297011Y-108702780D01*
X50159815Y-108590185D01*
X50047220Y-108452989D01*
X49963558Y-108296467D01*
X49963557Y-108296466D01*
X49912037Y-108126627D01*
X49894641Y-107950000D01*
X49912037Y-107773373D01*
X49963557Y-107603534D01*
X50010109Y-107516442D01*
X50047220Y-107447011D01*
X50159815Y-107309815D01*
X50297011Y-107197220D01*
X50401359Y-107141445D01*
X50453534Y-107113557D01*
X50623373Y-107062037D01*
X50667496Y-107057691D01*
X50755740Y-107049000D01*
X50844260Y-107049000D01*
X50932504Y-107057691D01*
X50932504Y-107057691D01*
G37*
G36*
X54241000Y-108851000D02*
G01*
X52439000Y-108851000D01*
X52439000Y-107049000D01*
X54241000Y-107049000D01*
X54241000Y-108851000D01*
X54241000Y-108851000D01*
G37*
G36*
X48392504Y-107057691D02*
G01*
X48436627Y-107062037D01*
X48606466Y-107113557D01*
X48658641Y-107141445D01*
X48762989Y-107197220D01*
X48900185Y-107309815D01*
X49012780Y-107447011D01*
X49049891Y-107516442D01*
X49096443Y-107603534D01*
X49147963Y-107773373D01*
X49165359Y-107950000D01*
X49147963Y-108126627D01*
X49096443Y-108296466D01*
X49096442Y-108296467D01*
X49012780Y-108452989D01*
X48900185Y-108590185D01*
X48762989Y-108702780D01*
X48658641Y-108758555D01*
X48606466Y-108786443D01*
X48436627Y-108837963D01*
X48392504Y-108842309D01*
X48304260Y-108851000D01*
X48215740Y-108851000D01*
X48127496Y-108842309D01*
X48083373Y-108837963D01*
X47913534Y-108786443D01*
X47861359Y-108758555D01*
X47757011Y-108702780D01*
X47619815Y-108590185D01*
X47507220Y-108452989D01*
X47423558Y-108296467D01*
X47423557Y-108296466D01*
X47372037Y-108126627D01*
X47354641Y-107950000D01*
X47372037Y-107773373D01*
X47423557Y-107603534D01*
X47470109Y-107516442D01*
X47507220Y-107447011D01*
X47619815Y-107309815D01*
X47757011Y-107197220D01*
X47861359Y-107141445D01*
X47913534Y-107113557D01*
X48083373Y-107062037D01*
X48127496Y-107057691D01*
X48215740Y-107049000D01*
X48304260Y-107049000D01*
X48392504Y-107057691D01*
X48392504Y-107057691D01*
G37*
G36*
X46621000Y-108851000D02*
G01*
X44819000Y-108851000D01*
X44819000Y-107049000D01*
X46621000Y-107049000D01*
X46621000Y-108851000D01*
X46621000Y-108851000D01*
G37*
G36*
X43312504Y-107057691D02*
G01*
X43356627Y-107062037D01*
X43526466Y-107113557D01*
X43578641Y-107141445D01*
X43682989Y-107197220D01*
X43820185Y-107309815D01*
X43932780Y-107447011D01*
X43969891Y-107516442D01*
X44016443Y-107603534D01*
X44067963Y-107773373D01*
X44085359Y-107950000D01*
X44067963Y-108126627D01*
X44016443Y-108296466D01*
X44016442Y-108296467D01*
X43932780Y-108452989D01*
X43820185Y-108590185D01*
X43682989Y-108702780D01*
X43578641Y-108758555D01*
X43526466Y-108786443D01*
X43356627Y-108837963D01*
X43312504Y-108842309D01*
X43224260Y-108851000D01*
X43135740Y-108851000D01*
X43047496Y-108842309D01*
X43003373Y-108837963D01*
X42833534Y-108786443D01*
X42781359Y-108758555D01*
X42677011Y-108702780D01*
X42539815Y-108590185D01*
X42427220Y-108452989D01*
X42343558Y-108296467D01*
X42343557Y-108296466D01*
X42292037Y-108126627D01*
X42274641Y-107950000D01*
X42292037Y-107773373D01*
X42343557Y-107603534D01*
X42390109Y-107516442D01*
X42427220Y-107447011D01*
X42539815Y-107309815D01*
X42677011Y-107197220D01*
X42781359Y-107141445D01*
X42833534Y-107113557D01*
X43003373Y-107062037D01*
X43047496Y-107057691D01*
X43135740Y-107049000D01*
X43224260Y-107049000D01*
X43312504Y-107057691D01*
X43312504Y-107057691D01*
G37*
G36*
X56012504Y-107057691D02*
G01*
X56056627Y-107062037D01*
X56226466Y-107113557D01*
X56278641Y-107141445D01*
X56382989Y-107197220D01*
X56520185Y-107309815D01*
X56632780Y-107447011D01*
X56669891Y-107516442D01*
X56716443Y-107603534D01*
X56767963Y-107773373D01*
X56785359Y-107950000D01*
X56767963Y-108126627D01*
X56716443Y-108296466D01*
X56716442Y-108296467D01*
X56632780Y-108452989D01*
X56520185Y-108590185D01*
X56382989Y-108702780D01*
X56278641Y-108758555D01*
X56226466Y-108786443D01*
X56056627Y-108837963D01*
X56012504Y-108842309D01*
X55924260Y-108851000D01*
X55835740Y-108851000D01*
X55747496Y-108842309D01*
X55703373Y-108837963D01*
X55533534Y-108786443D01*
X55481359Y-108758555D01*
X55377011Y-108702780D01*
X55239815Y-108590185D01*
X55127220Y-108452989D01*
X55043558Y-108296467D01*
X55043557Y-108296466D01*
X54992037Y-108126627D01*
X54974641Y-107950000D01*
X54992037Y-107773373D01*
X55043557Y-107603534D01*
X55090109Y-107516442D01*
X55127220Y-107447011D01*
X55239815Y-107309815D01*
X55377011Y-107197220D01*
X55481359Y-107141445D01*
X55533534Y-107113557D01*
X55703373Y-107062037D01*
X55747496Y-107057691D01*
X55835740Y-107049000D01*
X55924260Y-107049000D01*
X56012504Y-107057691D01*
X56012504Y-107057691D01*
G37*
G36*
X115067504Y-105787691D02*
G01*
X115111627Y-105792037D01*
X115281466Y-105843557D01*
X115333641Y-105871445D01*
X115437989Y-105927220D01*
X115575185Y-106039815D01*
X115687780Y-106177011D01*
X115743555Y-106281359D01*
X115771443Y-106333534D01*
X115822963Y-106503373D01*
X115840359Y-106680000D01*
X115822963Y-106856627D01*
X115771443Y-107026466D01*
X115771442Y-107026467D01*
X115687780Y-107182989D01*
X115575185Y-107320185D01*
X115437989Y-107432780D01*
X115333641Y-107488555D01*
X115281466Y-107516443D01*
X115111627Y-107567963D01*
X115067504Y-107572309D01*
X114979260Y-107581000D01*
X114890740Y-107581000D01*
X114802496Y-107572309D01*
X114758373Y-107567963D01*
X114588534Y-107516443D01*
X114536359Y-107488555D01*
X114432011Y-107432780D01*
X114294815Y-107320185D01*
X114182220Y-107182989D01*
X114098558Y-107026467D01*
X114098557Y-107026466D01*
X114047037Y-106856627D01*
X114029641Y-106680000D01*
X114047037Y-106503373D01*
X114098557Y-106333534D01*
X114126445Y-106281359D01*
X114182220Y-106177011D01*
X114294815Y-106039815D01*
X114432011Y-105927220D01*
X114536359Y-105871445D01*
X114588534Y-105843557D01*
X114758373Y-105792037D01*
X114802496Y-105787691D01*
X114890740Y-105779000D01*
X114979260Y-105779000D01*
X115067504Y-105787691D01*
X115067504Y-105787691D01*
G37*
G36*
X117607504Y-105787691D02*
G01*
X117651627Y-105792037D01*
X117821466Y-105843557D01*
X117873641Y-105871445D01*
X117977989Y-105927220D01*
X118115185Y-106039815D01*
X118227780Y-106177011D01*
X118283555Y-106281359D01*
X118311443Y-106333534D01*
X118362963Y-106503373D01*
X118380359Y-106680000D01*
X118362963Y-106856627D01*
X118311443Y-107026466D01*
X118311442Y-107026467D01*
X118227780Y-107182989D01*
X118115185Y-107320185D01*
X117977989Y-107432780D01*
X117873641Y-107488555D01*
X117821466Y-107516443D01*
X117651627Y-107567963D01*
X117607504Y-107572309D01*
X117519260Y-107581000D01*
X117430740Y-107581000D01*
X117342496Y-107572309D01*
X117298373Y-107567963D01*
X117128534Y-107516443D01*
X117076359Y-107488555D01*
X116972011Y-107432780D01*
X116834815Y-107320185D01*
X116722220Y-107182989D01*
X116638558Y-107026467D01*
X116638557Y-107026466D01*
X116587037Y-106856627D01*
X116569641Y-106680000D01*
X116587037Y-106503373D01*
X116638557Y-106333534D01*
X116666445Y-106281359D01*
X116722220Y-106177011D01*
X116834815Y-106039815D01*
X116972011Y-105927220D01*
X117076359Y-105871445D01*
X117128534Y-105843557D01*
X117298373Y-105792037D01*
X117342496Y-105787691D01*
X117430740Y-105779000D01*
X117519260Y-105779000D01*
X117607504Y-105787691D01*
X117607504Y-105787691D01*
G37*
G36*
X120916000Y-107581000D02*
G01*
X119114000Y-107581000D01*
X119114000Y-105779000D01*
X120916000Y-105779000D01*
X120916000Y-107581000D01*
X120916000Y-107581000D01*
G37*
G36*
X122687504Y-105787691D02*
G01*
X122731627Y-105792037D01*
X122901466Y-105843557D01*
X122953641Y-105871445D01*
X123057989Y-105927220D01*
X123195185Y-106039815D01*
X123307780Y-106177011D01*
X123363555Y-106281359D01*
X123391443Y-106333534D01*
X123442963Y-106503373D01*
X123460359Y-106680000D01*
X123442963Y-106856627D01*
X123391443Y-107026466D01*
X123391442Y-107026467D01*
X123307780Y-107182989D01*
X123195185Y-107320185D01*
X123057989Y-107432780D01*
X122953641Y-107488555D01*
X122901466Y-107516443D01*
X122731627Y-107567963D01*
X122687504Y-107572309D01*
X122599260Y-107581000D01*
X122510740Y-107581000D01*
X122422496Y-107572309D01*
X122378373Y-107567963D01*
X122208534Y-107516443D01*
X122156359Y-107488555D01*
X122052011Y-107432780D01*
X121914815Y-107320185D01*
X121802220Y-107182989D01*
X121718558Y-107026467D01*
X121718557Y-107026466D01*
X121667037Y-106856627D01*
X121649641Y-106680000D01*
X121667037Y-106503373D01*
X121718557Y-106333534D01*
X121746445Y-106281359D01*
X121802220Y-106177011D01*
X121914815Y-106039815D01*
X122052011Y-105927220D01*
X122156359Y-105871445D01*
X122208534Y-105843557D01*
X122378373Y-105792037D01*
X122422496Y-105787691D01*
X122510740Y-105779000D01*
X122599260Y-105779000D01*
X122687504Y-105787691D01*
X122687504Y-105787691D01*
G37*
G36*
X113296000Y-107581000D02*
G01*
X111494000Y-107581000D01*
X111494000Y-105779000D01*
X113296000Y-105779000D01*
X113296000Y-107581000D01*
X113296000Y-107581000D01*
G37*
G36*
X109987504Y-105787691D02*
G01*
X110031627Y-105792037D01*
X110201466Y-105843557D01*
X110253641Y-105871445D01*
X110357989Y-105927220D01*
X110495185Y-106039815D01*
X110607780Y-106177011D01*
X110663555Y-106281359D01*
X110691443Y-106333534D01*
X110742963Y-106503373D01*
X110760359Y-106680000D01*
X110742963Y-106856627D01*
X110691443Y-107026466D01*
X110691442Y-107026467D01*
X110607780Y-107182989D01*
X110495185Y-107320185D01*
X110357989Y-107432780D01*
X110253641Y-107488555D01*
X110201466Y-107516443D01*
X110031627Y-107567963D01*
X109987504Y-107572309D01*
X109899260Y-107581000D01*
X109810740Y-107581000D01*
X109722496Y-107572309D01*
X109678373Y-107567963D01*
X109508534Y-107516443D01*
X109456359Y-107488555D01*
X109352011Y-107432780D01*
X109214815Y-107320185D01*
X109102220Y-107182989D01*
X109018558Y-107026467D01*
X109018557Y-107026466D01*
X108967037Y-106856627D01*
X108949641Y-106680000D01*
X108967037Y-106503373D01*
X109018557Y-106333534D01*
X109046445Y-106281359D01*
X109102220Y-106177011D01*
X109214815Y-106039815D01*
X109352011Y-105927220D01*
X109456359Y-105871445D01*
X109508534Y-105843557D01*
X109678373Y-105792037D01*
X109722496Y-105787691D01*
X109810740Y-105779000D01*
X109899260Y-105779000D01*
X109987504Y-105787691D01*
X109987504Y-105787691D01*
G37*
G36*
X78806000Y-106545000D02*
G01*
X77404000Y-106545000D01*
X77404000Y-104943000D01*
X78806000Y-104943000D01*
X78806000Y-106545000D01*
X78806000Y-106545000D01*
G37*
G36*
X82108000Y-106545000D02*
G01*
X80706000Y-106545000D01*
X80706000Y-104943000D01*
X82108000Y-104943000D01*
X82108000Y-106545000D01*
X82108000Y-106545000D01*
G37*
G36*
X91275000Y-106445000D02*
G01*
X89573000Y-106445000D01*
X89573000Y-102343000D01*
X91275000Y-102343000D01*
X91275000Y-106445000D01*
X91275000Y-106445000D01*
G37*
G36*
X85131000Y-106445000D02*
G01*
X83779000Y-106445000D01*
X83779000Y-104843000D01*
X85131000Y-104843000D01*
X85131000Y-106445000D01*
X85131000Y-106445000D01*
G37*
G36*
X96815000Y-106445000D02*
G01*
X95463000Y-106445000D01*
X95463000Y-104843000D01*
X96815000Y-104843000D01*
X96815000Y-106445000D01*
X96815000Y-106445000D01*
G37*
G36*
X88975000Y-105645000D02*
G01*
X87473000Y-105645000D01*
X87473000Y-103143000D01*
X88975000Y-103143000D01*
X88975000Y-105645000D01*
X88975000Y-105645000D01*
G37*
G36*
X93375000Y-105645000D02*
G01*
X91873000Y-105645000D01*
X91873000Y-103143000D01*
X93375000Y-103143000D01*
X93375000Y-105645000D01*
X93375000Y-105645000D01*
G37*
G36*
X85131000Y-103945000D02*
G01*
X83779000Y-103945000D01*
X83779000Y-102343000D01*
X85131000Y-102343000D01*
X85131000Y-103945000D01*
X85131000Y-103945000D01*
G37*
G36*
X96815000Y-103945000D02*
G01*
X95463000Y-103945000D01*
X95463000Y-102343000D01*
X96815000Y-102343000D01*
X96815000Y-103945000D01*
X96815000Y-103945000D01*
G37*
G36*
X78806000Y-103845000D02*
G01*
X77404000Y-103845000D01*
X77404000Y-102243000D01*
X78806000Y-102243000D01*
X78806000Y-103845000D01*
X78806000Y-103845000D01*
G37*
G36*
X82108000Y-103845000D02*
G01*
X80706000Y-103845000D01*
X80706000Y-102243000D01*
X82108000Y-102243000D01*
X82108000Y-103845000D01*
X82108000Y-103845000D01*
G37*
G36*
X38422094Y-99980724D02*
G01*
X38581579Y-100012447D01*
X38882042Y-100136903D01*
X39152451Y-100317585D01*
X39382415Y-100547549D01*
X39563097Y-100817958D01*
X39687553Y-101118421D01*
X39751000Y-101437391D01*
X39751000Y-101762609D01*
X39687553Y-102081579D01*
X39563097Y-102382042D01*
X39382415Y-102652451D01*
X39152451Y-102882415D01*
X38882042Y-103063097D01*
X38581579Y-103187553D01*
X38422094Y-103219277D01*
X38262611Y-103251000D01*
X37937389Y-103251000D01*
X37777906Y-103219276D01*
X37618421Y-103187553D01*
X37317958Y-103063097D01*
X37047549Y-102882415D01*
X36817585Y-102652451D01*
X36636903Y-102382042D01*
X36512447Y-102081579D01*
X36449000Y-101762609D01*
X36449000Y-101437391D01*
X36512447Y-101118421D01*
X36636903Y-100817958D01*
X36817585Y-100547549D01*
X37047549Y-100317585D01*
X37317958Y-100136903D01*
X37618421Y-100012447D01*
X37777906Y-99980724D01*
X37937389Y-99949000D01*
X38262611Y-99949000D01*
X38422094Y-99980724D01*
X38422094Y-99980724D01*
G37*
G36*
X61282094Y-99980724D02*
G01*
X61441579Y-100012447D01*
X61742042Y-100136903D01*
X62012451Y-100317585D01*
X62242415Y-100547549D01*
X62423097Y-100817958D01*
X62547553Y-101118421D01*
X62611000Y-101437391D01*
X62611000Y-101762609D01*
X62547553Y-102081579D01*
X62423097Y-102382042D01*
X62242415Y-102652451D01*
X62012451Y-102882415D01*
X61742042Y-103063097D01*
X61441579Y-103187553D01*
X61282094Y-103219277D01*
X61122611Y-103251000D01*
X60797389Y-103251000D01*
X60637906Y-103219276D01*
X60478421Y-103187553D01*
X60177958Y-103063097D01*
X59907549Y-102882415D01*
X59677585Y-102652451D01*
X59496903Y-102382042D01*
X59372447Y-102081579D01*
X59309000Y-101762609D01*
X59309000Y-101437391D01*
X59372447Y-101118421D01*
X59496903Y-100817958D01*
X59677585Y-100547549D01*
X59907549Y-100317585D01*
X60177958Y-100136903D01*
X60478421Y-100012447D01*
X60637906Y-99980724D01*
X60797389Y-99949000D01*
X61122611Y-99949000D01*
X61282094Y-99980724D01*
X61282094Y-99980724D01*
G37*
G36*
X127957094Y-99345724D02*
G01*
X128116579Y-99377447D01*
X128417042Y-99501903D01*
X128687451Y-99682585D01*
X128917415Y-99912549D01*
X129098097Y-100182958D01*
X129222553Y-100483421D01*
X129286000Y-100802391D01*
X129286000Y-101127609D01*
X129222553Y-101446579D01*
X129098097Y-101747042D01*
X128917415Y-102017451D01*
X128687451Y-102247415D01*
X128417042Y-102428097D01*
X128116579Y-102552553D01*
X127957094Y-102584276D01*
X127797611Y-102616000D01*
X127472389Y-102616000D01*
X127312906Y-102584276D01*
X127153421Y-102552553D01*
X126852958Y-102428097D01*
X126582549Y-102247415D01*
X126352585Y-102017451D01*
X126171903Y-101747042D01*
X126047447Y-101446579D01*
X125984000Y-101127609D01*
X125984000Y-100802391D01*
X126047447Y-100483421D01*
X126171903Y-100182958D01*
X126352585Y-99912549D01*
X126582549Y-99682585D01*
X126852958Y-99501903D01*
X127153421Y-99377447D01*
X127312906Y-99345724D01*
X127472389Y-99314000D01*
X127797611Y-99314000D01*
X127957094Y-99345724D01*
X127957094Y-99345724D01*
G37*
G36*
X105097094Y-99345724D02*
G01*
X105256579Y-99377447D01*
X105557042Y-99501903D01*
X105827451Y-99682585D01*
X106057415Y-99912549D01*
X106238097Y-100182958D01*
X106362553Y-100483421D01*
X106426000Y-100802391D01*
X106426000Y-101127609D01*
X106362553Y-101446579D01*
X106238097Y-101747042D01*
X106057415Y-102017451D01*
X105827451Y-102247415D01*
X105557042Y-102428097D01*
X105256579Y-102552553D01*
X105097094Y-102584276D01*
X104937611Y-102616000D01*
X104612389Y-102616000D01*
X104452906Y-102584276D01*
X104293421Y-102552553D01*
X103992958Y-102428097D01*
X103722549Y-102247415D01*
X103492585Y-102017451D01*
X103311903Y-101747042D01*
X103187447Y-101446579D01*
X103124000Y-101127609D01*
X103124000Y-100802391D01*
X103187447Y-100483421D01*
X103311903Y-100182958D01*
X103492585Y-99912549D01*
X103722549Y-99682585D01*
X103992958Y-99501903D01*
X104293421Y-99377447D01*
X104452906Y-99345724D01*
X104612389Y-99314000D01*
X104937611Y-99314000D01*
X105097094Y-99345724D01*
X105097094Y-99345724D01*
G37*
G36*
X72808000Y-101637000D02*
G01*
X70956000Y-101637000D01*
X70956000Y-99785000D01*
X72808000Y-99785000D01*
X72808000Y-101637000D01*
X72808000Y-101637000D01*
G37*
G36*
X72152104Y-97320585D02*
G01*
X72320626Y-97390389D01*
X72472291Y-97491728D01*
X72601272Y-97620709D01*
X72702611Y-97772374D01*
X72772415Y-97940896D01*
X72808000Y-98119797D01*
X72808000Y-98302203D01*
X72772415Y-98481104D01*
X72702611Y-98649626D01*
X72601272Y-98801291D01*
X72472291Y-98930272D01*
X72320626Y-99031611D01*
X72152104Y-99101415D01*
X71973203Y-99137000D01*
X71790797Y-99137000D01*
X71611896Y-99101415D01*
X71443374Y-99031611D01*
X71291709Y-98930272D01*
X71162728Y-98801291D01*
X71061389Y-98649626D01*
X70991585Y-98481104D01*
X70956000Y-98302203D01*
X70956000Y-98119797D01*
X70991585Y-97940896D01*
X71061389Y-97772374D01*
X71162728Y-97620709D01*
X71291709Y-97491728D01*
X71443374Y-97390389D01*
X71611896Y-97320585D01*
X71790797Y-97285000D01*
X71973203Y-97285000D01*
X72152104Y-97320585D01*
X72152104Y-97320585D01*
G37*
G36*
X85433000Y-98387000D02*
G01*
X83731000Y-98387000D01*
X83731000Y-96685000D01*
X85433000Y-96685000D01*
X85433000Y-98387000D01*
X85433000Y-98387000D01*
G37*
G36*
X94450000Y-98260000D02*
G01*
X92748000Y-98260000D01*
X92748000Y-96558000D01*
X94450000Y-96558000D01*
X94450000Y-98260000D01*
X94450000Y-98260000D01*
G37*
G36*
X118550000Y-96688000D02*
G01*
X116948000Y-96688000D01*
X116948000Y-95336000D01*
X118550000Y-95336000D01*
X118550000Y-96688000D01*
X118550000Y-96688000D01*
G37*
G36*
X121050000Y-96688000D02*
G01*
X119448000Y-96688000D01*
X119448000Y-95336000D01*
X121050000Y-95336000D01*
X121050000Y-96688000D01*
X121050000Y-96688000D01*
G37*
G36*
X72152104Y-94820585D02*
G01*
X72320626Y-94890389D01*
X72472291Y-94991728D01*
X72601272Y-95120709D01*
X72702611Y-95272374D01*
X72772415Y-95440896D01*
X72808000Y-95619797D01*
X72808000Y-95802203D01*
X72772415Y-95981104D01*
X72702611Y-96149626D01*
X72601272Y-96301291D01*
X72472291Y-96430272D01*
X72320626Y-96531611D01*
X72152104Y-96601415D01*
X71973203Y-96637000D01*
X71790797Y-96637000D01*
X71611896Y-96601415D01*
X71443374Y-96531611D01*
X71291709Y-96430272D01*
X71162728Y-96301291D01*
X71061389Y-96149626D01*
X70991585Y-95981104D01*
X70956000Y-95802203D01*
X70956000Y-95619797D01*
X70991585Y-95440896D01*
X71061389Y-95272374D01*
X71162728Y-95120709D01*
X71291709Y-94991728D01*
X71443374Y-94890389D01*
X71611896Y-94820585D01*
X71790797Y-94785000D01*
X71973203Y-94785000D01*
X72152104Y-94820585D01*
X72152104Y-94820585D01*
G37*
G36*
X52724000Y-96594000D02*
G01*
X51122000Y-96594000D01*
X51122000Y-95242000D01*
X52724000Y-95242000D01*
X52724000Y-96594000D01*
X52724000Y-96594000D01*
G37*
G36*
X44509000Y-96594000D02*
G01*
X42907000Y-96594000D01*
X42907000Y-95242000D01*
X44509000Y-95242000D01*
X44509000Y-96594000D01*
X44509000Y-96594000D01*
G37*
G36*
X47009000Y-96594000D02*
G01*
X45407000Y-96594000D01*
X45407000Y-95242000D01*
X47009000Y-95242000D01*
X47009000Y-96594000D01*
X47009000Y-96594000D01*
G37*
G36*
X50224000Y-96594000D02*
G01*
X48622000Y-96594000D01*
X48622000Y-95242000D01*
X50224000Y-95242000D01*
X50224000Y-96594000D01*
X50224000Y-96594000D01*
G37*
G36*
X59047000Y-96589000D02*
G01*
X57445000Y-96589000D01*
X57445000Y-95187000D01*
X59047000Y-95187000D01*
X59047000Y-96589000D01*
X59047000Y-96589000D01*
G37*
G36*
X56347000Y-96589000D02*
G01*
X54745000Y-96589000D01*
X54745000Y-95187000D01*
X56347000Y-95187000D01*
X56347000Y-96589000D01*
X56347000Y-96589000D01*
G37*
G36*
X128402504Y-94738691D02*
G01*
X128446627Y-94743037D01*
X128616466Y-94794557D01*
X128665161Y-94820585D01*
X128772989Y-94878220D01*
X128910185Y-94990815D01*
X129022780Y-95128011D01*
X129054310Y-95187000D01*
X129106443Y-95284534D01*
X129157963Y-95454373D01*
X129175359Y-95631000D01*
X129157963Y-95807627D01*
X129106443Y-95977466D01*
X129106442Y-95977467D01*
X129022780Y-96133989D01*
X128910185Y-96271185D01*
X128772989Y-96383780D01*
X128686008Y-96430272D01*
X128616466Y-96467443D01*
X128446627Y-96518963D01*
X128402504Y-96523309D01*
X128314260Y-96532000D01*
X128225740Y-96532000D01*
X128137496Y-96523309D01*
X128093373Y-96518963D01*
X127923534Y-96467443D01*
X127853992Y-96430272D01*
X127767011Y-96383780D01*
X127629815Y-96271185D01*
X127517220Y-96133989D01*
X127433558Y-95977467D01*
X127433557Y-95977466D01*
X127382037Y-95807627D01*
X127364641Y-95631000D01*
X127382037Y-95454373D01*
X127433557Y-95284534D01*
X127485690Y-95187000D01*
X127517220Y-95128011D01*
X127629815Y-94990815D01*
X127767011Y-94878220D01*
X127874839Y-94820585D01*
X127923534Y-94794557D01*
X128093373Y-94743037D01*
X128137496Y-94738691D01*
X128225740Y-94730000D01*
X128314260Y-94730000D01*
X128402504Y-94738691D01*
X128402504Y-94738691D01*
G37*
G36*
X62743504Y-94140691D02*
G01*
X62787627Y-94145037D01*
X62957466Y-94196557D01*
X62960545Y-94198203D01*
X63113989Y-94280220D01*
X63251185Y-94392815D01*
X63363780Y-94530011D01*
X63372126Y-94545626D01*
X63447443Y-94686534D01*
X63498963Y-94856373D01*
X63516359Y-95033000D01*
X63498963Y-95209627D01*
X63447443Y-95379466D01*
X63447442Y-95379467D01*
X63363780Y-95535989D01*
X63251185Y-95673185D01*
X63113989Y-95785780D01*
X63009641Y-95841555D01*
X62957466Y-95869443D01*
X62787627Y-95920963D01*
X62743504Y-95925309D01*
X62655260Y-95934000D01*
X62566740Y-95934000D01*
X62478496Y-95925309D01*
X62434373Y-95920963D01*
X62264534Y-95869443D01*
X62212359Y-95841555D01*
X62108011Y-95785780D01*
X61970815Y-95673185D01*
X61858220Y-95535989D01*
X61774558Y-95379467D01*
X61774557Y-95379466D01*
X61723037Y-95209627D01*
X61705641Y-95033000D01*
X61723037Y-94856373D01*
X61774557Y-94686534D01*
X61849874Y-94545626D01*
X61858220Y-94530011D01*
X61970815Y-94392815D01*
X62108011Y-94280220D01*
X62261455Y-94198203D01*
X62264534Y-94196557D01*
X62434373Y-94145037D01*
X62478496Y-94140691D01*
X62566740Y-94132000D01*
X62655260Y-94132000D01*
X62743504Y-94140691D01*
X62743504Y-94140691D01*
G37*
G36*
X84830226Y-94217702D02*
G01*
X84830229Y-94217703D01*
X84830228Y-94217703D01*
X84985100Y-94281853D01*
X85096756Y-94356459D01*
X85111813Y-94366520D01*
X85124481Y-94374985D01*
X85243015Y-94493519D01*
X85336147Y-94632900D01*
X85376367Y-94730000D01*
X85400298Y-94787774D01*
X85433000Y-94952182D01*
X85433000Y-95119818D01*
X85400298Y-95284226D01*
X85400297Y-95284228D01*
X85336147Y-95439100D01*
X85243015Y-95578481D01*
X85124481Y-95697015D01*
X84985100Y-95790147D01*
X84856798Y-95843291D01*
X84830226Y-95854298D01*
X84665818Y-95887000D01*
X84498182Y-95887000D01*
X84333774Y-95854298D01*
X84307202Y-95843291D01*
X84178900Y-95790147D01*
X84039519Y-95697015D01*
X83920985Y-95578481D01*
X83827853Y-95439100D01*
X83763703Y-95284228D01*
X83763702Y-95284226D01*
X83731000Y-95119818D01*
X83731000Y-94952182D01*
X83763702Y-94787774D01*
X83787633Y-94730000D01*
X83827853Y-94632900D01*
X83920985Y-94493519D01*
X84039519Y-94374985D01*
X84052188Y-94366520D01*
X84067244Y-94356459D01*
X84178900Y-94281853D01*
X84333772Y-94217703D01*
X84333771Y-94217703D01*
X84333774Y-94217702D01*
X84498182Y-94185000D01*
X84665818Y-94185000D01*
X84830226Y-94217702D01*
X84830226Y-94217702D01*
G37*
G36*
X93847226Y-94090702D02*
G01*
X93847229Y-94090703D01*
X93847228Y-94090703D01*
X94002100Y-94154853D01*
X94141481Y-94247985D01*
X94260015Y-94366519D01*
X94353147Y-94505900D01*
X94405752Y-94632900D01*
X94417298Y-94660774D01*
X94450000Y-94825182D01*
X94450000Y-94992818D01*
X94417298Y-95157226D01*
X94417297Y-95157228D01*
X94353147Y-95312100D01*
X94278541Y-95423756D01*
X94260016Y-95451480D01*
X94141480Y-95570016D01*
X94128811Y-95578481D01*
X94002100Y-95663147D01*
X93873798Y-95716291D01*
X93847226Y-95727298D01*
X93682818Y-95760000D01*
X93515182Y-95760000D01*
X93350774Y-95727298D01*
X93324202Y-95716291D01*
X93195900Y-95663147D01*
X93069189Y-95578481D01*
X93056520Y-95570016D01*
X92937984Y-95451480D01*
X92919459Y-95423756D01*
X92844853Y-95312100D01*
X92780703Y-95157228D01*
X92780702Y-95157226D01*
X92748000Y-94992818D01*
X92748000Y-94825182D01*
X92780702Y-94660774D01*
X92792248Y-94632900D01*
X92844853Y-94505900D01*
X92937985Y-94366519D01*
X93056519Y-94247985D01*
X93195900Y-94154853D01*
X93350772Y-94090703D01*
X93350771Y-94090703D01*
X93350774Y-94090702D01*
X93515182Y-94058000D01*
X93682818Y-94058000D01*
X93847226Y-94090702D01*
X93847226Y-94090702D01*
G37*
G36*
X38116104Y-93216585D02*
G01*
X38284626Y-93286389D01*
X38436291Y-93387728D01*
X38565272Y-93516709D01*
X38666611Y-93668374D01*
X38736415Y-93836896D01*
X38772000Y-94015797D01*
X38772000Y-94198203D01*
X38736415Y-94377104D01*
X38666611Y-94545626D01*
X38565272Y-94697291D01*
X38436291Y-94826272D01*
X38284626Y-94927611D01*
X38116104Y-94997415D01*
X37937203Y-95033000D01*
X37754797Y-95033000D01*
X37575896Y-94997415D01*
X37407374Y-94927611D01*
X37255709Y-94826272D01*
X37126728Y-94697291D01*
X37025389Y-94545626D01*
X36955585Y-94377104D01*
X36920000Y-94198203D01*
X36920000Y-94015797D01*
X36955585Y-93836896D01*
X37025389Y-93668374D01*
X37126728Y-93516709D01*
X37255709Y-93387728D01*
X37407374Y-93286389D01*
X37575896Y-93216585D01*
X37754797Y-93181000D01*
X37937203Y-93181000D01*
X38116104Y-93216585D01*
X38116104Y-93216585D01*
G37*
G36*
X108789000Y-94271000D02*
G01*
X106937000Y-94271000D01*
X106937000Y-92419000D01*
X108789000Y-92419000D01*
X108789000Y-94271000D01*
X108789000Y-94271000D01*
G37*
G36*
X110633104Y-92454585D02*
G01*
X110801626Y-92524389D01*
X110953291Y-92625728D01*
X111082272Y-92754709D01*
X111183611Y-92906374D01*
X111253415Y-93074896D01*
X111289000Y-93253797D01*
X111289000Y-93436203D01*
X111253415Y-93615104D01*
X111183611Y-93783626D01*
X111082272Y-93935291D01*
X110953291Y-94064272D01*
X110801626Y-94165611D01*
X110633104Y-94235415D01*
X110454203Y-94271000D01*
X110271797Y-94271000D01*
X110092896Y-94235415D01*
X109924374Y-94165611D01*
X109772709Y-94064272D01*
X109643728Y-93935291D01*
X109542389Y-93783626D01*
X109472585Y-93615104D01*
X109437000Y-93436203D01*
X109437000Y-93253797D01*
X109472585Y-93074896D01*
X109542389Y-92906374D01*
X109643728Y-92754709D01*
X109772709Y-92625728D01*
X109924374Y-92524389D01*
X110092896Y-92454585D01*
X110271797Y-92419000D01*
X110454203Y-92419000D01*
X110633104Y-92454585D01*
X110633104Y-92454585D01*
G37*
G36*
X105633104Y-92454585D02*
G01*
X105801626Y-92524389D01*
X105953291Y-92625728D01*
X106082272Y-92754709D01*
X106183611Y-92906374D01*
X106253415Y-93074896D01*
X106289000Y-93253797D01*
X106289000Y-93436203D01*
X106253415Y-93615104D01*
X106183611Y-93783626D01*
X106082272Y-93935291D01*
X105953291Y-94064272D01*
X105801626Y-94165611D01*
X105633104Y-94235415D01*
X105454203Y-94271000D01*
X105271797Y-94271000D01*
X105092896Y-94235415D01*
X104924374Y-94165611D01*
X104772709Y-94064272D01*
X104643728Y-93935291D01*
X104542389Y-93783626D01*
X104472585Y-93615104D01*
X104437000Y-93436203D01*
X104437000Y-93253797D01*
X104472585Y-93074896D01*
X104542389Y-92906374D01*
X104643728Y-92754709D01*
X104772709Y-92625728D01*
X104924374Y-92524389D01*
X105092896Y-92454585D01*
X105271797Y-92419000D01*
X105454203Y-92419000D01*
X105633104Y-92454585D01*
X105633104Y-92454585D01*
G37*
G36*
X129171000Y-93992000D02*
G01*
X127369000Y-93992000D01*
X127369000Y-92190000D01*
X129171000Y-92190000D01*
X129171000Y-93992000D01*
X129171000Y-93992000D01*
G37*
G36*
X122923500Y-93904000D02*
G01*
X121678500Y-93904000D01*
X121678500Y-93294000D01*
X122923500Y-93294000D01*
X122923500Y-93904000D01*
X122923500Y-93904000D01*
G37*
G36*
X116573500Y-93904000D02*
G01*
X115328500Y-93904000D01*
X115328500Y-93294000D01*
X116573500Y-93294000D01*
X116573500Y-93904000D01*
X116573500Y-93904000D01*
G37*
G36*
X58947000Y-93537332D02*
G01*
X57345000Y-93537332D01*
X57345000Y-92185332D01*
X58947000Y-92185332D01*
X58947000Y-93537332D01*
X58947000Y-93537332D01*
G37*
G36*
X56447000Y-93537332D02*
G01*
X54845000Y-93537332D01*
X54845000Y-92185332D01*
X56447000Y-92185332D01*
X56447000Y-93537332D01*
X56447000Y-93537332D01*
G37*
G36*
X63512000Y-93394000D02*
G01*
X61710000Y-93394000D01*
X61710000Y-91592000D01*
X63512000Y-91592000D01*
X63512000Y-93394000D01*
X63512000Y-93394000D01*
G37*
G36*
X51859000Y-93108000D02*
G01*
X50307000Y-93108000D01*
X50307000Y-92656000D01*
X51859000Y-92656000D01*
X51859000Y-93108000D01*
X51859000Y-93108000D01*
G37*
G36*
X45959000Y-93108000D02*
G01*
X44407000Y-93108000D01*
X44407000Y-92656000D01*
X45959000Y-92656000D01*
X45959000Y-93108000D01*
X45959000Y-93108000D01*
G37*
G36*
X122923500Y-92634000D02*
G01*
X121678500Y-92634000D01*
X121678500Y-92024000D01*
X122923500Y-92024000D01*
X122923500Y-92634000D01*
X122923500Y-92634000D01*
G37*
G36*
X116573500Y-92634000D02*
G01*
X115328500Y-92634000D01*
X115328500Y-92024000D01*
X116573500Y-92024000D01*
X116573500Y-92634000D01*
X116573500Y-92634000D01*
G37*
G36*
X38772000Y-92533000D02*
G01*
X36920000Y-92533000D01*
X36920000Y-90681000D01*
X38772000Y-90681000D01*
X38772000Y-92533000D01*
X38772000Y-92533000D01*
G37*
G36*
X51859000Y-92458000D02*
G01*
X50307000Y-92458000D01*
X50307000Y-92006000D01*
X51859000Y-92006000D01*
X51859000Y-92458000D01*
X51859000Y-92458000D01*
G37*
G36*
X45959000Y-92458000D02*
G01*
X44407000Y-92458000D01*
X44407000Y-92006000D01*
X45959000Y-92006000D01*
X45959000Y-92458000D01*
X45959000Y-92458000D01*
G37*
G36*
X51859000Y-91808000D02*
G01*
X50307000Y-91808000D01*
X50307000Y-91356000D01*
X51859000Y-91356000D01*
X51859000Y-91808000D01*
X51859000Y-91808000D01*
G37*
G36*
X45959000Y-91808000D02*
G01*
X44407000Y-91808000D01*
X44407000Y-91356000D01*
X45959000Y-91356000D01*
X45959000Y-91808000D01*
X45959000Y-91808000D01*
G37*
G36*
X128402504Y-89658691D02*
G01*
X128446627Y-89663037D01*
X128616466Y-89714557D01*
X128668641Y-89742445D01*
X128772989Y-89798220D01*
X128910185Y-89910815D01*
X129022780Y-90048011D01*
X129047361Y-90094000D01*
X129106443Y-90204534D01*
X129157963Y-90374373D01*
X129175359Y-90551000D01*
X129157963Y-90727627D01*
X129106443Y-90897466D01*
X129106442Y-90897467D01*
X129022780Y-91053989D01*
X128910185Y-91191185D01*
X128772989Y-91303780D01*
X128675291Y-91356000D01*
X128616466Y-91387443D01*
X128446627Y-91438963D01*
X128402504Y-91443309D01*
X128314260Y-91452000D01*
X128225740Y-91452000D01*
X128137496Y-91443309D01*
X128093373Y-91438963D01*
X127923534Y-91387443D01*
X127864709Y-91356000D01*
X127767011Y-91303780D01*
X127629815Y-91191185D01*
X127517220Y-91053989D01*
X127433558Y-90897467D01*
X127433557Y-90897466D01*
X127382037Y-90727627D01*
X127364641Y-90551000D01*
X127382037Y-90374373D01*
X127433557Y-90204534D01*
X127492639Y-90094000D01*
X127517220Y-90048011D01*
X127629815Y-89910815D01*
X127767011Y-89798220D01*
X127871359Y-89742445D01*
X127923534Y-89714557D01*
X128093373Y-89663037D01*
X128137496Y-89658691D01*
X128225740Y-89650000D01*
X128314260Y-89650000D01*
X128402504Y-89658691D01*
X128402504Y-89658691D01*
G37*
G36*
X116573500Y-91364000D02*
G01*
X115328500Y-91364000D01*
X115328500Y-90754000D01*
X116573500Y-90754000D01*
X116573500Y-91364000D01*
X116573500Y-91364000D01*
G37*
G36*
X122923500Y-91364000D02*
G01*
X121678500Y-91364000D01*
X121678500Y-90754000D01*
X122923500Y-90754000D01*
X122923500Y-91364000D01*
X122923500Y-91364000D01*
G37*
G36*
X45959000Y-91158000D02*
G01*
X44407000Y-91158000D01*
X44407000Y-90706000D01*
X45959000Y-90706000D01*
X45959000Y-91158000D01*
X45959000Y-91158000D01*
G37*
G36*
X51859000Y-91158000D02*
G01*
X50307000Y-91158000D01*
X50307000Y-90706000D01*
X51859000Y-90706000D01*
X51859000Y-91158000D01*
X51859000Y-91158000D01*
G37*
G36*
X62743504Y-89060691D02*
G01*
X62787627Y-89065037D01*
X62957466Y-89116557D01*
X63009641Y-89144445D01*
X63113989Y-89200220D01*
X63251185Y-89312815D01*
X63363780Y-89450011D01*
X63381947Y-89484000D01*
X63447443Y-89606534D01*
X63498963Y-89776373D01*
X63516359Y-89953000D01*
X63498963Y-90129627D01*
X63447443Y-90299466D01*
X63447442Y-90299467D01*
X63363780Y-90455989D01*
X63251185Y-90593185D01*
X63113989Y-90705780D01*
X63023775Y-90754000D01*
X62957466Y-90789443D01*
X62787627Y-90840963D01*
X62743504Y-90845309D01*
X62655260Y-90854000D01*
X62566740Y-90854000D01*
X62478496Y-90845309D01*
X62434373Y-90840963D01*
X62264534Y-90789443D01*
X62198225Y-90754000D01*
X62108011Y-90705780D01*
X61970815Y-90593185D01*
X61858220Y-90455989D01*
X61774558Y-90299467D01*
X61774557Y-90299466D01*
X61723037Y-90129627D01*
X61705641Y-89953000D01*
X61723037Y-89776373D01*
X61774557Y-89606534D01*
X61840053Y-89484000D01*
X61858220Y-89450011D01*
X61970815Y-89312815D01*
X62108011Y-89200220D01*
X62212359Y-89144445D01*
X62264534Y-89116557D01*
X62434373Y-89065037D01*
X62478496Y-89060691D01*
X62566740Y-89052000D01*
X62655260Y-89052000D01*
X62743504Y-89060691D01*
X62743504Y-89060691D01*
G37*
G36*
X58947000Y-90540666D02*
G01*
X57345000Y-90540666D01*
X57345000Y-89188666D01*
X58947000Y-89188666D01*
X58947000Y-90540666D01*
X58947000Y-90540666D01*
G37*
G36*
X56447000Y-90540666D02*
G01*
X54845000Y-90540666D01*
X54845000Y-89188666D01*
X56447000Y-89188666D01*
X56447000Y-90540666D01*
X56447000Y-90540666D01*
G37*
G36*
X45959000Y-90508000D02*
G01*
X44407000Y-90508000D01*
X44407000Y-90056000D01*
X45959000Y-90056000D01*
X45959000Y-90508000D01*
X45959000Y-90508000D01*
G37*
G36*
X51859000Y-90508000D02*
G01*
X50307000Y-90508000D01*
X50307000Y-90056000D01*
X51859000Y-90056000D01*
X51859000Y-90508000D01*
X51859000Y-90508000D01*
G37*
G36*
X116573500Y-90094000D02*
G01*
X115328500Y-90094000D01*
X115328500Y-89484000D01*
X116573500Y-89484000D01*
X116573500Y-90094000D01*
X116573500Y-90094000D01*
G37*
G36*
X122923500Y-90094000D02*
G01*
X121678500Y-90094000D01*
X121678500Y-89484000D01*
X122923500Y-89484000D01*
X122923500Y-90094000D01*
X122923500Y-90094000D01*
G37*
G36*
X51859000Y-89858000D02*
G01*
X50307000Y-89858000D01*
X50307000Y-89406000D01*
X51859000Y-89406000D01*
X51859000Y-89858000D01*
X51859000Y-89858000D01*
G37*
G36*
X45959000Y-89833000D02*
G01*
X44407000Y-89833000D01*
X44407000Y-89431000D01*
X45959000Y-89431000D01*
X45959000Y-89833000D01*
X45959000Y-89833000D01*
G37*
G36*
X45959000Y-89208000D02*
G01*
X44407000Y-89208000D01*
X44407000Y-88756000D01*
X45959000Y-88756000D01*
X45959000Y-89208000D01*
X45959000Y-89208000D01*
G37*
G36*
X51859000Y-89208000D02*
G01*
X50307000Y-89208000D01*
X50307000Y-88756000D01*
X51859000Y-88756000D01*
X51859000Y-89208000D01*
X51859000Y-89208000D01*
G37*
G36*
X92820142Y-86848242D02*
G01*
X92968098Y-86909528D01*
X92968100Y-86909529D01*
X93101257Y-86998501D01*
X93214499Y-87111743D01*
X93303471Y-87244900D01*
X93303472Y-87244902D01*
X93364758Y-87392858D01*
X93396000Y-87549925D01*
X93396000Y-87710075D01*
X93364758Y-87867142D01*
X93348269Y-87906949D01*
X93303471Y-88015100D01*
X93214499Y-88148257D01*
X93101257Y-88261499D01*
X92968100Y-88350471D01*
X92968099Y-88350472D01*
X92968098Y-88350472D01*
X92820142Y-88411758D01*
X92663075Y-88443000D01*
X92502925Y-88443000D01*
X92345858Y-88411758D01*
X92197902Y-88350472D01*
X92197901Y-88350472D01*
X92197900Y-88350471D01*
X92064743Y-88261499D01*
X91951501Y-88148257D01*
X91862529Y-88015100D01*
X91817731Y-87906949D01*
X91801242Y-87867142D01*
X91770000Y-87710075D01*
X91770000Y-87549925D01*
X91801242Y-87392858D01*
X91862528Y-87244902D01*
X91862529Y-87244900D01*
X91951501Y-87111743D01*
X92064743Y-86998501D01*
X92197900Y-86909529D01*
X92197902Y-86909528D01*
X92345858Y-86848242D01*
X92502925Y-86817000D01*
X92663075Y-86817000D01*
X92820142Y-86848242D01*
X92820142Y-86848242D01*
G37*
G36*
X85200142Y-86848242D02*
G01*
X85348098Y-86909528D01*
X85348100Y-86909529D01*
X85481257Y-86998501D01*
X85594499Y-87111743D01*
X85683471Y-87244900D01*
X85683472Y-87244902D01*
X85744758Y-87392858D01*
X85776000Y-87549925D01*
X85776000Y-87710075D01*
X85744758Y-87867142D01*
X85728269Y-87906949D01*
X85683471Y-88015100D01*
X85594499Y-88148257D01*
X85481257Y-88261499D01*
X85348100Y-88350471D01*
X85348099Y-88350472D01*
X85348098Y-88350472D01*
X85200142Y-88411758D01*
X85043075Y-88443000D01*
X84882925Y-88443000D01*
X84725858Y-88411758D01*
X84577902Y-88350472D01*
X84577901Y-88350472D01*
X84577900Y-88350471D01*
X84444743Y-88261499D01*
X84331501Y-88148257D01*
X84242529Y-88015100D01*
X84197731Y-87906949D01*
X84181242Y-87867142D01*
X84150000Y-87710075D01*
X84150000Y-87549925D01*
X84181242Y-87392858D01*
X84242528Y-87244902D01*
X84242529Y-87244900D01*
X84331501Y-87111743D01*
X84444743Y-86998501D01*
X84577900Y-86909529D01*
X84577902Y-86909528D01*
X84725858Y-86848242D01*
X84882925Y-86817000D01*
X85043075Y-86817000D01*
X85200142Y-86848242D01*
X85200142Y-86848242D01*
G37*
G36*
X82660142Y-86848242D02*
G01*
X82808098Y-86909528D01*
X82808100Y-86909529D01*
X82941257Y-86998501D01*
X83054499Y-87111743D01*
X83143471Y-87244900D01*
X83143472Y-87244902D01*
X83204758Y-87392858D01*
X83236000Y-87549925D01*
X83236000Y-87710075D01*
X83204758Y-87867142D01*
X83188269Y-87906949D01*
X83143471Y-88015100D01*
X83054499Y-88148257D01*
X82941257Y-88261499D01*
X82808100Y-88350471D01*
X82808099Y-88350472D01*
X82808098Y-88350472D01*
X82660142Y-88411758D01*
X82503075Y-88443000D01*
X82342925Y-88443000D01*
X82185858Y-88411758D01*
X82037902Y-88350472D01*
X82037901Y-88350472D01*
X82037900Y-88350471D01*
X81904743Y-88261499D01*
X81791501Y-88148257D01*
X81702529Y-88015100D01*
X81657731Y-87906949D01*
X81641242Y-87867142D01*
X81610000Y-87710075D01*
X81610000Y-87549925D01*
X81641242Y-87392858D01*
X81702528Y-87244902D01*
X81702529Y-87244900D01*
X81791501Y-87111743D01*
X81904743Y-86998501D01*
X82037900Y-86909529D01*
X82037902Y-86909528D01*
X82185858Y-86848242D01*
X82342925Y-86817000D01*
X82503075Y-86817000D01*
X82660142Y-86848242D01*
X82660142Y-86848242D01*
G37*
G36*
X95360142Y-86848242D02*
G01*
X95508098Y-86909528D01*
X95508100Y-86909529D01*
X95641257Y-86998501D01*
X95754499Y-87111743D01*
X95843471Y-87244900D01*
X95843472Y-87244902D01*
X95904758Y-87392858D01*
X95936000Y-87549925D01*
X95936000Y-87710075D01*
X95904758Y-87867142D01*
X95888269Y-87906949D01*
X95843471Y-88015100D01*
X95754499Y-88148257D01*
X95641257Y-88261499D01*
X95508100Y-88350471D01*
X95508099Y-88350472D01*
X95508098Y-88350472D01*
X95360142Y-88411758D01*
X95203075Y-88443000D01*
X95042925Y-88443000D01*
X94885858Y-88411758D01*
X94737902Y-88350472D01*
X94737901Y-88350472D01*
X94737900Y-88350471D01*
X94604743Y-88261499D01*
X94491501Y-88148257D01*
X94402529Y-88015100D01*
X94357731Y-87906949D01*
X94341242Y-87867142D01*
X94310000Y-87710075D01*
X94310000Y-87549925D01*
X94341242Y-87392858D01*
X94402528Y-87244902D01*
X94402529Y-87244900D01*
X94491501Y-87111743D01*
X94604743Y-86998501D01*
X94737900Y-86909529D01*
X94737902Y-86909528D01*
X94885858Y-86848242D01*
X95042925Y-86817000D01*
X95203075Y-86817000D01*
X95360142Y-86848242D01*
X95360142Y-86848242D01*
G37*
G36*
X87740142Y-86848242D02*
G01*
X87888098Y-86909528D01*
X87888100Y-86909529D01*
X88021257Y-86998501D01*
X88134499Y-87111743D01*
X88223471Y-87244900D01*
X88223472Y-87244902D01*
X88284758Y-87392858D01*
X88316000Y-87549925D01*
X88316000Y-87710075D01*
X88284758Y-87867142D01*
X88268269Y-87906949D01*
X88223471Y-88015100D01*
X88134499Y-88148257D01*
X88021257Y-88261499D01*
X87888100Y-88350471D01*
X87888099Y-88350472D01*
X87888098Y-88350472D01*
X87740142Y-88411758D01*
X87583075Y-88443000D01*
X87422925Y-88443000D01*
X87265858Y-88411758D01*
X87117902Y-88350472D01*
X87117901Y-88350472D01*
X87117900Y-88350471D01*
X86984743Y-88261499D01*
X86871501Y-88148257D01*
X86782529Y-88015100D01*
X86737731Y-87906949D01*
X86721242Y-87867142D01*
X86690000Y-87710075D01*
X86690000Y-87549925D01*
X86721242Y-87392858D01*
X86782528Y-87244902D01*
X86782529Y-87244900D01*
X86871501Y-87111743D01*
X86984743Y-86998501D01*
X87117900Y-86909529D01*
X87117902Y-86909528D01*
X87265858Y-86848242D01*
X87422925Y-86817000D01*
X87583075Y-86817000D01*
X87740142Y-86848242D01*
X87740142Y-86848242D01*
G37*
G36*
X73587527Y-86336398D02*
G01*
X73762081Y-86389349D01*
X73922944Y-86475332D01*
X73922945Y-86475333D01*
X73922947Y-86475334D01*
X74063949Y-86591051D01*
X74179666Y-86732053D01*
X74179668Y-86732056D01*
X74265651Y-86892919D01*
X74318602Y-87067473D01*
X74336480Y-87249000D01*
X74318602Y-87430527D01*
X74265651Y-87605081D01*
X74179668Y-87765944D01*
X74179666Y-87765947D01*
X74063949Y-87906949D01*
X73922947Y-88022666D01*
X73922945Y-88022667D01*
X73922944Y-88022668D01*
X73762081Y-88108651D01*
X73587527Y-88161602D01*
X73451490Y-88175000D01*
X73360510Y-88175000D01*
X73224473Y-88161602D01*
X73049919Y-88108651D01*
X72889056Y-88022668D01*
X72889055Y-88022667D01*
X72889053Y-88022666D01*
X72748051Y-87906949D01*
X72632334Y-87765947D01*
X72632332Y-87765944D01*
X72546349Y-87605081D01*
X72493398Y-87430527D01*
X72475520Y-87249000D01*
X72493398Y-87067473D01*
X72546349Y-86892919D01*
X72632332Y-86732056D01*
X72632334Y-86732053D01*
X72748051Y-86591051D01*
X72889053Y-86475334D01*
X72889055Y-86475333D01*
X72889056Y-86475332D01*
X73049919Y-86389349D01*
X73224473Y-86336398D01*
X73360510Y-86323000D01*
X73451490Y-86323000D01*
X73587527Y-86336398D01*
X73587527Y-86336398D01*
G37*
G36*
X118677000Y-87671000D02*
G01*
X117075000Y-87671000D01*
X117075000Y-86319000D01*
X118677000Y-86319000D01*
X118677000Y-87671000D01*
X118677000Y-87671000D01*
G37*
G36*
X121177000Y-87671000D02*
G01*
X119575000Y-87671000D01*
X119575000Y-86319000D01*
X121177000Y-86319000D01*
X121177000Y-87671000D01*
X121177000Y-87671000D01*
G37*
G36*
X109747000Y-87671000D02*
G01*
X108145000Y-87671000D01*
X108145000Y-86319000D01*
X109747000Y-86319000D01*
X109747000Y-87671000D01*
X109747000Y-87671000D01*
G37*
G36*
X127821000Y-87671000D02*
G01*
X126219000Y-87671000D01*
X126219000Y-86319000D01*
X127821000Y-86319000D01*
X127821000Y-87671000D01*
X127821000Y-87671000D01*
G37*
G36*
X107247000Y-87671000D02*
G01*
X105645000Y-87671000D01*
X105645000Y-86319000D01*
X107247000Y-86319000D01*
X107247000Y-87671000D01*
X107247000Y-87671000D01*
G37*
G36*
X130321000Y-87671000D02*
G01*
X128719000Y-87671000D01*
X128719000Y-86319000D01*
X130321000Y-86319000D01*
X130321000Y-87671000D01*
X130321000Y-87671000D01*
G37*
G36*
X56447000Y-87544000D02*
G01*
X54845000Y-87544000D01*
X54845000Y-86192000D01*
X56447000Y-86192000D01*
X56447000Y-87544000D01*
X56447000Y-87544000D01*
G37*
G36*
X58947000Y-87544000D02*
G01*
X57345000Y-87544000D01*
X57345000Y-86192000D01*
X58947000Y-86192000D01*
X58947000Y-87544000D01*
X58947000Y-87544000D01*
G37*
G36*
X38249214Y-87544000D02*
G01*
X36647214Y-87544000D01*
X36647214Y-86192000D01*
X38249214Y-86192000D01*
X38249214Y-87544000D01*
X38249214Y-87544000D01*
G37*
G36*
X40749214Y-87544000D02*
G01*
X39147214Y-87544000D01*
X39147214Y-86192000D01*
X40749214Y-86192000D01*
X40749214Y-87544000D01*
X40749214Y-87544000D01*
G37*
G36*
X74332000Y-85675000D02*
G01*
X72480000Y-85675000D01*
X72480000Y-83823000D01*
X74332000Y-83823000D01*
X74332000Y-85675000D01*
X74332000Y-85675000D01*
G37*
G36*
X60373852Y-84701000D02*
G01*
X58971852Y-84701000D01*
X58971852Y-83099000D01*
X60373852Y-83099000D01*
X60373852Y-84701000D01*
X60373852Y-84701000D01*
G37*
G36*
X130876000Y-84701000D02*
G01*
X129474000Y-84701000D01*
X129474000Y-83099000D01*
X130876000Y-83099000D01*
X130876000Y-84701000D01*
X130876000Y-84701000D01*
G37*
G36*
X127048852Y-84701000D02*
G01*
X125646852Y-84701000D01*
X125646852Y-83099000D01*
X127048852Y-83099000D01*
X127048852Y-84701000D01*
X127048852Y-84701000D01*
G37*
G36*
X123221710Y-84701000D02*
G01*
X121819710Y-84701000D01*
X121819710Y-83099000D01*
X123221710Y-83099000D01*
X123221710Y-84701000D01*
X123221710Y-84701000D01*
G37*
G36*
X111860284Y-84701000D02*
G01*
X110458284Y-84701000D01*
X110458284Y-83099000D01*
X111860284Y-83099000D01*
X111860284Y-84701000D01*
X111860284Y-84701000D01*
G37*
G36*
X108033142Y-84701000D02*
G01*
X106631142Y-84701000D01*
X106631142Y-83099000D01*
X108033142Y-83099000D01*
X108033142Y-84701000D01*
X108033142Y-84701000D01*
G37*
G36*
X104206000Y-84701000D02*
G01*
X102804000Y-84701000D01*
X102804000Y-83099000D01*
X104206000Y-83099000D01*
X104206000Y-84701000D01*
X104206000Y-84701000D01*
G37*
G36*
X64201000Y-84701000D02*
G01*
X62799000Y-84701000D01*
X62799000Y-83099000D01*
X64201000Y-83099000D01*
X64201000Y-84701000D01*
X64201000Y-84701000D01*
G37*
G36*
X56546710Y-84701000D02*
G01*
X55144710Y-84701000D01*
X55144710Y-83099000D01*
X56546710Y-83099000D01*
X56546710Y-84701000D01*
X56546710Y-84701000D01*
G37*
G36*
X45185284Y-84701000D02*
G01*
X43783284Y-84701000D01*
X43783284Y-83099000D01*
X45185284Y-83099000D01*
X45185284Y-84701000D01*
X45185284Y-84701000D01*
G37*
G36*
X41358142Y-84701000D02*
G01*
X39956142Y-84701000D01*
X39956142Y-83099000D01*
X41358142Y-83099000D01*
X41358142Y-84701000D01*
X41358142Y-84701000D01*
G37*
G36*
X37531000Y-84701000D02*
G01*
X36129000Y-84701000D01*
X36129000Y-83099000D01*
X37531000Y-83099000D01*
X37531000Y-84701000D01*
X37531000Y-84701000D01*
G37*
G36*
X115632426Y-84601000D02*
G01*
X114280426Y-84601000D01*
X114280426Y-82999000D01*
X115632426Y-82999000D01*
X115632426Y-84601000D01*
X115632426Y-84601000D01*
G37*
G36*
X52724568Y-84601000D02*
G01*
X51372568Y-84601000D01*
X51372568Y-82999000D01*
X52724568Y-82999000D01*
X52724568Y-84601000D01*
X52724568Y-84601000D01*
G37*
G36*
X48957426Y-84601000D02*
G01*
X47605426Y-84601000D01*
X47605426Y-82999000D01*
X48957426Y-82999000D01*
X48957426Y-84601000D01*
X48957426Y-84601000D01*
G37*
G36*
X119399568Y-84601000D02*
G01*
X118047568Y-84601000D01*
X118047568Y-82999000D01*
X119399568Y-82999000D01*
X119399568Y-84601000D01*
X119399568Y-84601000D01*
G37*
G36*
X73676104Y-81358585D02*
G01*
X73844626Y-81428389D01*
X73996291Y-81529728D01*
X74125272Y-81658709D01*
X74226611Y-81810374D01*
X74296415Y-81978896D01*
X74332000Y-82157797D01*
X74332000Y-82340203D01*
X74296415Y-82519104D01*
X74226611Y-82687626D01*
X74125272Y-82839291D01*
X73996291Y-82968272D01*
X73844626Y-83069611D01*
X73676104Y-83139415D01*
X73497203Y-83175000D01*
X73314797Y-83175000D01*
X73135896Y-83139415D01*
X72967374Y-83069611D01*
X72815709Y-82968272D01*
X72686728Y-82839291D01*
X72585389Y-82687626D01*
X72515585Y-82519104D01*
X72480000Y-82340203D01*
X72480000Y-82157797D01*
X72515585Y-81978896D01*
X72585389Y-81810374D01*
X72686728Y-81658709D01*
X72815709Y-81529728D01*
X72967374Y-81428389D01*
X73135896Y-81358585D01*
X73314797Y-81323000D01*
X73497203Y-81323000D01*
X73676104Y-81358585D01*
X73676104Y-81358585D01*
G37*
G36*
X52724568Y-82101000D02*
G01*
X51372568Y-82101000D01*
X51372568Y-80499000D01*
X52724568Y-80499000D01*
X52724568Y-82101000D01*
X52724568Y-82101000D01*
G37*
G36*
X115632426Y-82101000D02*
G01*
X114280426Y-82101000D01*
X114280426Y-80499000D01*
X115632426Y-80499000D01*
X115632426Y-82101000D01*
X115632426Y-82101000D01*
G37*
G36*
X119399568Y-82101000D02*
G01*
X118047568Y-82101000D01*
X118047568Y-80499000D01*
X119399568Y-80499000D01*
X119399568Y-82101000D01*
X119399568Y-82101000D01*
G37*
G36*
X48957426Y-82101000D02*
G01*
X47605426Y-82101000D01*
X47605426Y-80499000D01*
X48957426Y-80499000D01*
X48957426Y-82101000D01*
X48957426Y-82101000D01*
G37*
G36*
X127048852Y-82001000D02*
G01*
X125646852Y-82001000D01*
X125646852Y-80399000D01*
X127048852Y-80399000D01*
X127048852Y-82001000D01*
X127048852Y-82001000D01*
G37*
G36*
X45185284Y-82001000D02*
G01*
X43783284Y-82001000D01*
X43783284Y-80399000D01*
X45185284Y-80399000D01*
X45185284Y-82001000D01*
X45185284Y-82001000D01*
G37*
G36*
X37531000Y-82001000D02*
G01*
X36129000Y-82001000D01*
X36129000Y-80399000D01*
X37531000Y-80399000D01*
X37531000Y-82001000D01*
X37531000Y-82001000D01*
G37*
G36*
X64201000Y-82001000D02*
G01*
X62799000Y-82001000D01*
X62799000Y-80399000D01*
X64201000Y-80399000D01*
X64201000Y-82001000D01*
X64201000Y-82001000D01*
G37*
G36*
X130876000Y-82001000D02*
G01*
X129474000Y-82001000D01*
X129474000Y-80399000D01*
X130876000Y-80399000D01*
X130876000Y-82001000D01*
X130876000Y-82001000D01*
G37*
G36*
X123221710Y-82001000D02*
G01*
X121819710Y-82001000D01*
X121819710Y-80399000D01*
X123221710Y-80399000D01*
X123221710Y-82001000D01*
X123221710Y-82001000D01*
G37*
G36*
X41358142Y-82001000D02*
G01*
X39956142Y-82001000D01*
X39956142Y-80399000D01*
X41358142Y-80399000D01*
X41358142Y-82001000D01*
X41358142Y-82001000D01*
G37*
G36*
X60373852Y-82001000D02*
G01*
X58971852Y-82001000D01*
X58971852Y-80399000D01*
X60373852Y-80399000D01*
X60373852Y-82001000D01*
X60373852Y-82001000D01*
G37*
G36*
X104206000Y-82001000D02*
G01*
X102804000Y-82001000D01*
X102804000Y-80399000D01*
X104206000Y-80399000D01*
X104206000Y-82001000D01*
X104206000Y-82001000D01*
G37*
G36*
X108033142Y-82001000D02*
G01*
X106631142Y-82001000D01*
X106631142Y-80399000D01*
X108033142Y-80399000D01*
X108033142Y-82001000D01*
X108033142Y-82001000D01*
G37*
G36*
X56546710Y-82001000D02*
G01*
X55144710Y-82001000D01*
X55144710Y-80399000D01*
X56546710Y-80399000D01*
X56546710Y-82001000D01*
X56546710Y-82001000D01*
G37*
G36*
X111860284Y-82001000D02*
G01*
X110458284Y-82001000D01*
X110458284Y-80399000D01*
X111860284Y-80399000D01*
X111860284Y-82001000D01*
X111860284Y-82001000D01*
G37*
G36*
X115627426Y-78351000D02*
G01*
X114225426Y-78351000D01*
X114225426Y-76749000D01*
X115627426Y-76749000D01*
X115627426Y-78351000D01*
X115627426Y-78351000D01*
G37*
G36*
X104206000Y-78351000D02*
G01*
X102804000Y-78351000D01*
X102804000Y-76749000D01*
X104206000Y-76749000D01*
X104206000Y-78351000D01*
X104206000Y-78351000D01*
G37*
G36*
X111800284Y-78351000D02*
G01*
X110398284Y-78351000D01*
X110398284Y-76749000D01*
X111800284Y-76749000D01*
X111800284Y-78351000D01*
X111800284Y-78351000D01*
G37*
G36*
X119454568Y-78351000D02*
G01*
X118052568Y-78351000D01*
X118052568Y-76749000D01*
X119454568Y-76749000D01*
X119454568Y-78351000D01*
X119454568Y-78351000D01*
G37*
G36*
X123281710Y-78351000D02*
G01*
X121879710Y-78351000D01*
X121879710Y-76749000D01*
X123281710Y-76749000D01*
X123281710Y-78351000D01*
X123281710Y-78351000D01*
G37*
G36*
X130876000Y-78351000D02*
G01*
X129474000Y-78351000D01*
X129474000Y-76749000D01*
X130876000Y-76749000D01*
X130876000Y-78351000D01*
X130876000Y-78351000D01*
G37*
G36*
X56606710Y-78351000D02*
G01*
X55204710Y-78351000D01*
X55204710Y-76749000D01*
X56606710Y-76749000D01*
X56606710Y-78351000D01*
X56606710Y-78351000D01*
G37*
G36*
X64201000Y-78351000D02*
G01*
X62799000Y-78351000D01*
X62799000Y-76749000D01*
X64201000Y-76749000D01*
X64201000Y-78351000D01*
X64201000Y-78351000D01*
G37*
G36*
X52779568Y-78351000D02*
G01*
X51377568Y-78351000D01*
X51377568Y-76749000D01*
X52779568Y-76749000D01*
X52779568Y-78351000D01*
X52779568Y-78351000D01*
G37*
G36*
X48952426Y-78351000D02*
G01*
X47550426Y-78351000D01*
X47550426Y-76749000D01*
X48952426Y-76749000D01*
X48952426Y-78351000D01*
X48952426Y-78351000D01*
G37*
G36*
X37531000Y-78351000D02*
G01*
X36129000Y-78351000D01*
X36129000Y-76749000D01*
X37531000Y-76749000D01*
X37531000Y-78351000D01*
X37531000Y-78351000D01*
G37*
G36*
X45125284Y-78351000D02*
G01*
X43723284Y-78351000D01*
X43723284Y-76749000D01*
X45125284Y-76749000D01*
X45125284Y-78351000D01*
X45125284Y-78351000D01*
G37*
G36*
X107978142Y-78251000D02*
G01*
X106626142Y-78251000D01*
X106626142Y-76649000D01*
X107978142Y-76649000D01*
X107978142Y-78251000D01*
X107978142Y-78251000D01*
G37*
G36*
X41303142Y-78251000D02*
G01*
X39951142Y-78251000D01*
X39951142Y-76649000D01*
X41303142Y-76649000D01*
X41303142Y-78251000D01*
X41303142Y-78251000D01*
G37*
G36*
X127053852Y-78251000D02*
G01*
X125701852Y-78251000D01*
X125701852Y-76649000D01*
X127053852Y-76649000D01*
X127053852Y-78251000D01*
X127053852Y-78251000D01*
G37*
G36*
X60378852Y-78251000D02*
G01*
X59026852Y-78251000D01*
X59026852Y-76649000D01*
X60378852Y-76649000D01*
X60378852Y-78251000D01*
X60378852Y-78251000D01*
G37*
G36*
X85966500Y-77978200D02*
G01*
X82689500Y-77978200D01*
X82689500Y-76250600D01*
X85966500Y-76250600D01*
X85966500Y-77978200D01*
X85966500Y-77978200D01*
G37*
G36*
X95085000Y-77686000D02*
G01*
X93383000Y-77686000D01*
X93383000Y-75984000D01*
X95085000Y-75984000D01*
X95085000Y-77686000D01*
X95085000Y-77686000D01*
G37*
G36*
X74332000Y-77062500D02*
G01*
X72480000Y-77062500D01*
X72480000Y-75210500D01*
X74332000Y-75210500D01*
X74332000Y-77062500D01*
X74332000Y-77062500D01*
G37*
G36*
X41303142Y-75751000D02*
G01*
X39951142Y-75751000D01*
X39951142Y-74149000D01*
X41303142Y-74149000D01*
X41303142Y-75751000D01*
X41303142Y-75751000D01*
G37*
G36*
X60378852Y-75751000D02*
G01*
X59026852Y-75751000D01*
X59026852Y-74149000D01*
X60378852Y-74149000D01*
X60378852Y-75751000D01*
X60378852Y-75751000D01*
G37*
G36*
X107978142Y-75751000D02*
G01*
X106626142Y-75751000D01*
X106626142Y-74149000D01*
X107978142Y-74149000D01*
X107978142Y-75751000D01*
X107978142Y-75751000D01*
G37*
G36*
X127053852Y-75751000D02*
G01*
X125701852Y-75751000D01*
X125701852Y-74149000D01*
X127053852Y-74149000D01*
X127053852Y-75751000D01*
X127053852Y-75751000D01*
G37*
G36*
X37531000Y-75651000D02*
G01*
X36129000Y-75651000D01*
X36129000Y-74049000D01*
X37531000Y-74049000D01*
X37531000Y-75651000D01*
X37531000Y-75651000D01*
G37*
G36*
X119454568Y-75651000D02*
G01*
X118052568Y-75651000D01*
X118052568Y-74049000D01*
X119454568Y-74049000D01*
X119454568Y-75651000D01*
X119454568Y-75651000D01*
G37*
G36*
X123281710Y-75651000D02*
G01*
X121879710Y-75651000D01*
X121879710Y-74049000D01*
X123281710Y-74049000D01*
X123281710Y-75651000D01*
X123281710Y-75651000D01*
G37*
G36*
X130876000Y-75651000D02*
G01*
X129474000Y-75651000D01*
X129474000Y-74049000D01*
X130876000Y-74049000D01*
X130876000Y-75651000D01*
X130876000Y-75651000D01*
G37*
G36*
X111800284Y-75651000D02*
G01*
X110398284Y-75651000D01*
X110398284Y-74049000D01*
X111800284Y-74049000D01*
X111800284Y-75651000D01*
X111800284Y-75651000D01*
G37*
G36*
X104206000Y-75651000D02*
G01*
X102804000Y-75651000D01*
X102804000Y-74049000D01*
X104206000Y-74049000D01*
X104206000Y-75651000D01*
X104206000Y-75651000D01*
G37*
G36*
X56606710Y-75651000D02*
G01*
X55204710Y-75651000D01*
X55204710Y-74049000D01*
X56606710Y-74049000D01*
X56606710Y-75651000D01*
X56606710Y-75651000D01*
G37*
G36*
X52779568Y-75651000D02*
G01*
X51377568Y-75651000D01*
X51377568Y-74049000D01*
X52779568Y-74049000D01*
X52779568Y-75651000D01*
X52779568Y-75651000D01*
G37*
G36*
X48952426Y-75651000D02*
G01*
X47550426Y-75651000D01*
X47550426Y-74049000D01*
X48952426Y-74049000D01*
X48952426Y-75651000D01*
X48952426Y-75651000D01*
G37*
G36*
X45125284Y-75651000D02*
G01*
X43723284Y-75651000D01*
X43723284Y-74049000D01*
X45125284Y-74049000D01*
X45125284Y-75651000D01*
X45125284Y-75651000D01*
G37*
G36*
X115627426Y-75651000D02*
G01*
X114225426Y-75651000D01*
X114225426Y-74049000D01*
X115627426Y-74049000D01*
X115627426Y-75651000D01*
X115627426Y-75651000D01*
G37*
G36*
X64201000Y-75651000D02*
G01*
X62799000Y-75651000D01*
X62799000Y-74049000D01*
X64201000Y-74049000D01*
X64201000Y-75651000D01*
X64201000Y-75651000D01*
G37*
G36*
X94482226Y-73516702D02*
G01*
X94482229Y-73516703D01*
X94482228Y-73516703D01*
X94637100Y-73580853D01*
X94776481Y-73673985D01*
X94895015Y-73792519D01*
X94988147Y-73931900D01*
X95036651Y-74049000D01*
X95052298Y-74086774D01*
X95085000Y-74251182D01*
X95085000Y-74418818D01*
X95052298Y-74583226D01*
X95052297Y-74583228D01*
X94988147Y-74738100D01*
X94895015Y-74877481D01*
X94776481Y-74996015D01*
X94637100Y-75089147D01*
X94508798Y-75142291D01*
X94482226Y-75153298D01*
X94317818Y-75186000D01*
X94150182Y-75186000D01*
X93985774Y-75153298D01*
X93959202Y-75142291D01*
X93830900Y-75089147D01*
X93691519Y-74996015D01*
X93572985Y-74877481D01*
X93479853Y-74738100D01*
X93415703Y-74583228D01*
X93415702Y-74583226D01*
X93383000Y-74418818D01*
X93383000Y-74251182D01*
X93415702Y-74086774D01*
X93431349Y-74049000D01*
X93479853Y-73931900D01*
X93572985Y-73792519D01*
X93691519Y-73673985D01*
X93830900Y-73580853D01*
X93985772Y-73516703D01*
X93985771Y-73516703D01*
X93985774Y-73516702D01*
X94150182Y-73484000D01*
X94317818Y-73484000D01*
X94482226Y-73516702D01*
X94482226Y-73516702D01*
G37*
G36*
X73676104Y-72746085D02*
G01*
X73844626Y-72815889D01*
X73996291Y-72917228D01*
X74125272Y-73046209D01*
X74226611Y-73197874D01*
X74296415Y-73366396D01*
X74332000Y-73545297D01*
X74332000Y-73727703D01*
X74296415Y-73906604D01*
X74226611Y-74075126D01*
X74125272Y-74226791D01*
X73996291Y-74355772D01*
X73844626Y-74457111D01*
X73676104Y-74526915D01*
X73497203Y-74562500D01*
X73314797Y-74562500D01*
X73135896Y-74526915D01*
X72967374Y-74457111D01*
X72815709Y-74355772D01*
X72686728Y-74226791D01*
X72585389Y-74075126D01*
X72515585Y-73906604D01*
X72480000Y-73727703D01*
X72480000Y-73545297D01*
X72515585Y-73366396D01*
X72585389Y-73197874D01*
X72686728Y-73046209D01*
X72815709Y-72917228D01*
X72967374Y-72815889D01*
X73135896Y-72746085D01*
X73314797Y-72710500D01*
X73497203Y-72710500D01*
X73676104Y-72746085D01*
X73676104Y-72746085D01*
G37*
G36*
X82512100Y-71577400D02*
G01*
X81521100Y-71577400D01*
X81521100Y-69849800D01*
X82512100Y-69849800D01*
X82512100Y-71577400D01*
X82512100Y-71577400D01*
G37*
G36*
X84823500Y-71577400D02*
G01*
X83832500Y-71577400D01*
X83832500Y-69849800D01*
X84823500Y-69849800D01*
X84823500Y-71577400D01*
X84823500Y-71577400D01*
G37*
G36*
X87134900Y-71577400D02*
G01*
X86143900Y-71577400D01*
X86143900Y-69849800D01*
X87134900Y-69849800D01*
X87134900Y-71577400D01*
X87134900Y-71577400D01*
G37*
G36*
X60613226Y-69031702D02*
G01*
X60613229Y-69031703D01*
X60613228Y-69031703D01*
X60768100Y-69095853D01*
X60907481Y-69188985D01*
X61026015Y-69307519D01*
X61119147Y-69446900D01*
X61172291Y-69575202D01*
X61183298Y-69601774D01*
X61216000Y-69766182D01*
X61216000Y-69933818D01*
X61183298Y-70098226D01*
X61183297Y-70098228D01*
X61119147Y-70253100D01*
X61026015Y-70392481D01*
X60907481Y-70511015D01*
X60768100Y-70604147D01*
X60639798Y-70657291D01*
X60613226Y-70668298D01*
X60448818Y-70701000D01*
X60281182Y-70701000D01*
X60116774Y-70668298D01*
X60090202Y-70657291D01*
X59961900Y-70604147D01*
X59822519Y-70511015D01*
X59703985Y-70392481D01*
X59610853Y-70253100D01*
X59546703Y-70098228D01*
X59546702Y-70098226D01*
X59514000Y-69933818D01*
X59514000Y-69766182D01*
X59546702Y-69601774D01*
X59557709Y-69575202D01*
X59610853Y-69446900D01*
X59703985Y-69307519D01*
X59822519Y-69188985D01*
X59961900Y-69095853D01*
X60116772Y-69031703D01*
X60116771Y-69031703D01*
X60116774Y-69031702D01*
X60281182Y-68999000D01*
X60448818Y-68999000D01*
X60613226Y-69031702D01*
X60613226Y-69031702D01*
G37*
G36*
X63716000Y-70701000D02*
G01*
X62014000Y-70701000D01*
X62014000Y-68999000D01*
X63716000Y-68999000D01*
X63716000Y-70701000D01*
X63716000Y-70701000D01*
G37*
G36*
X106253226Y-69031702D02*
G01*
X106253229Y-69031703D01*
X106253228Y-69031703D01*
X106408100Y-69095853D01*
X106547481Y-69188985D01*
X106666015Y-69307519D01*
X106759147Y-69446900D01*
X106812291Y-69575202D01*
X106823298Y-69601774D01*
X106856000Y-69766182D01*
X106856000Y-69933818D01*
X106823298Y-70098226D01*
X106823297Y-70098228D01*
X106759147Y-70253100D01*
X106666015Y-70392481D01*
X106547481Y-70511015D01*
X106408100Y-70604147D01*
X106279798Y-70657291D01*
X106253226Y-70668298D01*
X106088818Y-70701000D01*
X105921182Y-70701000D01*
X105756774Y-70668298D01*
X105730202Y-70657291D01*
X105601900Y-70604147D01*
X105462519Y-70511015D01*
X105343985Y-70392481D01*
X105250853Y-70253100D01*
X105186703Y-70098228D01*
X105186702Y-70098226D01*
X105154000Y-69933818D01*
X105154000Y-69766182D01*
X105186702Y-69601774D01*
X105197709Y-69575202D01*
X105250853Y-69446900D01*
X105343985Y-69307519D01*
X105462519Y-69188985D01*
X105601900Y-69095853D01*
X105756772Y-69031703D01*
X105756771Y-69031703D01*
X105756774Y-69031702D01*
X105921182Y-68999000D01*
X106088818Y-68999000D01*
X106253226Y-69031702D01*
X106253226Y-69031702D01*
G37*
G36*
X55871000Y-70701000D02*
G01*
X54169000Y-70701000D01*
X54169000Y-68999000D01*
X55871000Y-68999000D01*
X55871000Y-70701000D01*
X55871000Y-70701000D01*
G37*
G36*
X52768226Y-69031702D02*
G01*
X52768229Y-69031703D01*
X52768228Y-69031703D01*
X52923100Y-69095853D01*
X53062481Y-69188985D01*
X53181015Y-69307519D01*
X53274147Y-69446900D01*
X53327291Y-69575202D01*
X53338298Y-69601774D01*
X53371000Y-69766182D01*
X53371000Y-69933818D01*
X53338298Y-70098226D01*
X53338297Y-70098228D01*
X53274147Y-70253100D01*
X53181015Y-70392481D01*
X53062481Y-70511015D01*
X52923100Y-70604147D01*
X52794798Y-70657291D01*
X52768226Y-70668298D01*
X52603818Y-70701000D01*
X52436182Y-70701000D01*
X52271774Y-70668298D01*
X52245202Y-70657291D01*
X52116900Y-70604147D01*
X51977519Y-70511015D01*
X51858985Y-70392481D01*
X51765853Y-70253100D01*
X51701703Y-70098228D01*
X51701702Y-70098226D01*
X51669000Y-69933818D01*
X51669000Y-69766182D01*
X51701702Y-69601774D01*
X51712709Y-69575202D01*
X51765853Y-69446900D01*
X51858985Y-69307519D01*
X51977519Y-69188985D01*
X52116900Y-69095853D01*
X52271772Y-69031703D01*
X52271771Y-69031703D01*
X52271774Y-69031702D01*
X52436182Y-68999000D01*
X52603818Y-68999000D01*
X52768226Y-69031702D01*
X52768226Y-69031702D01*
G37*
G36*
X47423226Y-69031702D02*
G01*
X47423229Y-69031703D01*
X47423228Y-69031703D01*
X47578100Y-69095853D01*
X47717481Y-69188985D01*
X47836015Y-69307519D01*
X47929147Y-69446900D01*
X47982291Y-69575202D01*
X47993298Y-69601774D01*
X48026000Y-69766182D01*
X48026000Y-69933818D01*
X47993298Y-70098226D01*
X47993297Y-70098228D01*
X47929147Y-70253100D01*
X47836015Y-70392481D01*
X47717481Y-70511015D01*
X47578100Y-70604147D01*
X47449798Y-70657291D01*
X47423226Y-70668298D01*
X47258818Y-70701000D01*
X47091182Y-70701000D01*
X46926774Y-70668298D01*
X46900202Y-70657291D01*
X46771900Y-70604147D01*
X46632519Y-70511015D01*
X46513985Y-70392481D01*
X46420853Y-70253100D01*
X46356703Y-70098228D01*
X46356702Y-70098226D01*
X46324000Y-69933818D01*
X46324000Y-69766182D01*
X46356702Y-69601774D01*
X46367709Y-69575202D01*
X46420853Y-69446900D01*
X46513985Y-69307519D01*
X46632519Y-69188985D01*
X46771900Y-69095853D01*
X46926772Y-69031703D01*
X46926771Y-69031703D01*
X46926774Y-69031702D01*
X47091182Y-68999000D01*
X47258818Y-68999000D01*
X47423226Y-69031702D01*
X47423226Y-69031702D01*
G37*
G36*
X45526000Y-70701000D02*
G01*
X43824000Y-70701000D01*
X43824000Y-68999000D01*
X45526000Y-68999000D01*
X45526000Y-70701000D01*
X45526000Y-70701000D01*
G37*
G36*
X39578226Y-69031702D02*
G01*
X39578229Y-69031703D01*
X39578228Y-69031703D01*
X39733100Y-69095853D01*
X39872481Y-69188985D01*
X39991015Y-69307519D01*
X40084147Y-69446900D01*
X40137291Y-69575202D01*
X40148298Y-69601774D01*
X40181000Y-69766182D01*
X40181000Y-69933818D01*
X40148298Y-70098226D01*
X40148297Y-70098228D01*
X40084147Y-70253100D01*
X39991015Y-70392481D01*
X39872481Y-70511015D01*
X39733100Y-70604147D01*
X39604798Y-70657291D01*
X39578226Y-70668298D01*
X39413818Y-70701000D01*
X39246182Y-70701000D01*
X39081774Y-70668298D01*
X39055202Y-70657291D01*
X38926900Y-70604147D01*
X38787519Y-70511015D01*
X38668985Y-70392481D01*
X38575853Y-70253100D01*
X38511703Y-70098228D01*
X38511702Y-70098226D01*
X38479000Y-69933818D01*
X38479000Y-69766182D01*
X38511702Y-69601774D01*
X38522709Y-69575202D01*
X38575853Y-69446900D01*
X38668985Y-69307519D01*
X38787519Y-69188985D01*
X38926900Y-69095853D01*
X39081772Y-69031703D01*
X39081771Y-69031703D01*
X39081774Y-69031702D01*
X39246182Y-68999000D01*
X39413818Y-68999000D01*
X39578226Y-69031702D01*
X39578226Y-69031702D01*
G37*
G36*
X104356000Y-70701000D02*
G01*
X102654000Y-70701000D01*
X102654000Y-68999000D01*
X104356000Y-68999000D01*
X104356000Y-70701000D01*
X104356000Y-70701000D01*
G37*
G36*
X114098226Y-69031702D02*
G01*
X114098229Y-69031703D01*
X114098228Y-69031703D01*
X114253100Y-69095853D01*
X114392481Y-69188985D01*
X114511015Y-69307519D01*
X114604147Y-69446900D01*
X114657291Y-69575202D01*
X114668298Y-69601774D01*
X114701000Y-69766182D01*
X114701000Y-69933818D01*
X114668298Y-70098226D01*
X114668297Y-70098228D01*
X114604147Y-70253100D01*
X114511015Y-70392481D01*
X114392481Y-70511015D01*
X114253100Y-70604147D01*
X114124798Y-70657291D01*
X114098226Y-70668298D01*
X113933818Y-70701000D01*
X113766182Y-70701000D01*
X113601774Y-70668298D01*
X113575202Y-70657291D01*
X113446900Y-70604147D01*
X113307519Y-70511015D01*
X113188985Y-70392481D01*
X113095853Y-70253100D01*
X113031703Y-70098228D01*
X113031702Y-70098226D01*
X112999000Y-69933818D01*
X112999000Y-69766182D01*
X113031702Y-69601774D01*
X113042709Y-69575202D01*
X113095853Y-69446900D01*
X113188985Y-69307519D01*
X113307519Y-69188985D01*
X113446900Y-69095853D01*
X113601772Y-69031703D01*
X113601771Y-69031703D01*
X113601774Y-69031702D01*
X113766182Y-68999000D01*
X113933818Y-68999000D01*
X114098226Y-69031702D01*
X114098226Y-69031702D01*
G37*
G36*
X119443226Y-69031702D02*
G01*
X119443229Y-69031703D01*
X119443228Y-69031703D01*
X119598100Y-69095853D01*
X119737481Y-69188985D01*
X119856015Y-69307519D01*
X119949147Y-69446900D01*
X120002291Y-69575202D01*
X120013298Y-69601774D01*
X120046000Y-69766182D01*
X120046000Y-69933818D01*
X120013298Y-70098226D01*
X120013297Y-70098228D01*
X119949147Y-70253100D01*
X119856015Y-70392481D01*
X119737481Y-70511015D01*
X119598100Y-70604147D01*
X119469798Y-70657291D01*
X119443226Y-70668298D01*
X119278818Y-70701000D01*
X119111182Y-70701000D01*
X118946774Y-70668298D01*
X118920202Y-70657291D01*
X118791900Y-70604147D01*
X118652519Y-70511015D01*
X118533985Y-70392481D01*
X118440853Y-70253100D01*
X118376703Y-70098228D01*
X118376702Y-70098226D01*
X118344000Y-69933818D01*
X118344000Y-69766182D01*
X118376702Y-69601774D01*
X118387709Y-69575202D01*
X118440853Y-69446900D01*
X118533985Y-69307519D01*
X118652519Y-69188985D01*
X118791900Y-69095853D01*
X118946772Y-69031703D01*
X118946771Y-69031703D01*
X118946774Y-69031702D01*
X119111182Y-68999000D01*
X119278818Y-68999000D01*
X119443226Y-69031702D01*
X119443226Y-69031702D01*
G37*
G36*
X122546000Y-70701000D02*
G01*
X120844000Y-70701000D01*
X120844000Y-68999000D01*
X122546000Y-68999000D01*
X122546000Y-70701000D01*
X122546000Y-70701000D01*
G37*
G36*
X112201000Y-70701000D02*
G01*
X110499000Y-70701000D01*
X110499000Y-68999000D01*
X112201000Y-68999000D01*
X112201000Y-70701000D01*
X112201000Y-70701000D01*
G37*
G36*
X127288226Y-69031702D02*
G01*
X127288229Y-69031703D01*
X127288228Y-69031703D01*
X127443100Y-69095853D01*
X127582481Y-69188985D01*
X127701015Y-69307519D01*
X127794147Y-69446900D01*
X127847291Y-69575202D01*
X127858298Y-69601774D01*
X127891000Y-69766182D01*
X127891000Y-69933818D01*
X127858298Y-70098226D01*
X127858297Y-70098228D01*
X127794147Y-70253100D01*
X127701015Y-70392481D01*
X127582481Y-70511015D01*
X127443100Y-70604147D01*
X127314798Y-70657291D01*
X127288226Y-70668298D01*
X127123818Y-70701000D01*
X126956182Y-70701000D01*
X126791774Y-70668298D01*
X126765202Y-70657291D01*
X126636900Y-70604147D01*
X126497519Y-70511015D01*
X126378985Y-70392481D01*
X126285853Y-70253100D01*
X126221703Y-70098228D01*
X126221702Y-70098226D01*
X126189000Y-69933818D01*
X126189000Y-69766182D01*
X126221702Y-69601774D01*
X126232709Y-69575202D01*
X126285853Y-69446900D01*
X126378985Y-69307519D01*
X126497519Y-69188985D01*
X126636900Y-69095853D01*
X126791772Y-69031703D01*
X126791771Y-69031703D01*
X126791774Y-69031702D01*
X126956182Y-68999000D01*
X127123818Y-68999000D01*
X127288226Y-69031702D01*
X127288226Y-69031702D01*
G37*
G36*
X130391000Y-70701000D02*
G01*
X128689000Y-70701000D01*
X128689000Y-68999000D01*
X130391000Y-68999000D01*
X130391000Y-70701000D01*
X130391000Y-70701000D01*
G37*
G36*
X37681000Y-70701000D02*
G01*
X35979000Y-70701000D01*
X35979000Y-68999000D01*
X37681000Y-68999000D01*
X37681000Y-70701000D01*
X37681000Y-70701000D01*
G37*
G36*
X95085000Y-68161000D02*
G01*
X93383000Y-68161000D01*
X93383000Y-66459000D01*
X95085000Y-66459000D01*
X95085000Y-68161000D01*
X95085000Y-68161000D01*
G37*
G36*
X88179000Y-67837000D02*
G01*
X86827000Y-67837000D01*
X86827000Y-66235000D01*
X88179000Y-66235000D01*
X88179000Y-67837000D01*
X88179000Y-67837000D01*
G37*
G36*
X85004000Y-67837000D02*
G01*
X83652000Y-67837000D01*
X83652000Y-66235000D01*
X85004000Y-66235000D01*
X85004000Y-67837000D01*
X85004000Y-67837000D01*
G37*
G36*
X81829000Y-67837000D02*
G01*
X80477000Y-67837000D01*
X80477000Y-66235000D01*
X81829000Y-66235000D01*
X81829000Y-67837000D01*
X81829000Y-67837000D01*
G37*
G36*
X74332000Y-67474000D02*
G01*
X72480000Y-67474000D01*
X72480000Y-65622000D01*
X74332000Y-65622000D01*
X74332000Y-67474000D01*
X74332000Y-67474000D01*
G37*
G36*
X94482226Y-63991702D02*
G01*
X94482229Y-63991703D01*
X94482228Y-63991703D01*
X94637100Y-64055853D01*
X94748756Y-64130459D01*
X94761842Y-64139203D01*
X94776481Y-64148985D01*
X94895015Y-64267519D01*
X94988147Y-64406900D01*
X95041291Y-64535202D01*
X95052298Y-64561774D01*
X95085000Y-64726182D01*
X95085000Y-64893818D01*
X95052298Y-65058226D01*
X95052297Y-65058228D01*
X94988147Y-65213100D01*
X94895015Y-65352481D01*
X94776481Y-65471015D01*
X94637100Y-65564147D01*
X94508798Y-65617291D01*
X94482226Y-65628298D01*
X94317818Y-65661000D01*
X94150182Y-65661000D01*
X93985774Y-65628298D01*
X93959202Y-65617291D01*
X93830900Y-65564147D01*
X93691519Y-65471015D01*
X93572985Y-65352481D01*
X93479853Y-65213100D01*
X93415703Y-65058228D01*
X93415702Y-65058226D01*
X93383000Y-64893818D01*
X93383000Y-64726182D01*
X93415702Y-64561774D01*
X93426709Y-64535202D01*
X93479853Y-64406900D01*
X93572985Y-64267519D01*
X93691519Y-64148985D01*
X93706159Y-64139203D01*
X93719244Y-64130459D01*
X93830900Y-64055853D01*
X93985772Y-63991703D01*
X93985771Y-63991703D01*
X93985774Y-63991702D01*
X94150182Y-63959000D01*
X94317818Y-63959000D01*
X94482226Y-63991702D01*
X94482226Y-63991702D01*
G37*
G36*
X85004000Y-65337000D02*
G01*
X83652000Y-65337000D01*
X83652000Y-63735000D01*
X85004000Y-63735000D01*
X85004000Y-65337000D01*
X85004000Y-65337000D01*
G37*
G36*
X81829000Y-65337000D02*
G01*
X80477000Y-65337000D01*
X80477000Y-63735000D01*
X81829000Y-63735000D01*
X81829000Y-65337000D01*
X81829000Y-65337000D01*
G37*
G36*
X88179000Y-65337000D02*
G01*
X86827000Y-65337000D01*
X86827000Y-63735000D01*
X88179000Y-63735000D01*
X88179000Y-65337000D01*
X88179000Y-65337000D01*
G37*
G36*
X73676104Y-63157585D02*
G01*
X73844626Y-63227389D01*
X73996291Y-63328728D01*
X74125272Y-63457709D01*
X74226611Y-63609374D01*
X74296415Y-63777896D01*
X74332000Y-63956797D01*
X74332000Y-64139203D01*
X74296415Y-64318104D01*
X74226611Y-64486626D01*
X74125272Y-64638291D01*
X73996291Y-64767272D01*
X73844626Y-64868611D01*
X73676104Y-64938415D01*
X73497203Y-64974000D01*
X73314797Y-64974000D01*
X73135896Y-64938415D01*
X72967374Y-64868611D01*
X72815709Y-64767272D01*
X72686728Y-64638291D01*
X72585389Y-64486626D01*
X72515585Y-64318104D01*
X72480000Y-64139203D01*
X72480000Y-63956797D01*
X72515585Y-63777896D01*
X72585389Y-63609374D01*
X72686728Y-63457709D01*
X72815709Y-63328728D01*
X72967374Y-63227389D01*
X73135896Y-63157585D01*
X73314797Y-63122000D01*
X73497203Y-63122000D01*
X73676104Y-63157585D01*
X73676104Y-63157585D01*
G37*
G36*
X46621000Y-64401000D02*
G01*
X44819000Y-64401000D01*
X44819000Y-62599000D01*
X46621000Y-62599000D01*
X46621000Y-64401000D01*
X46621000Y-64401000D01*
G37*
G36*
X48392504Y-62607691D02*
G01*
X48436627Y-62612037D01*
X48606466Y-62663557D01*
X48658641Y-62691445D01*
X48762989Y-62747220D01*
X48900185Y-62859815D01*
X49012780Y-62997011D01*
X49068555Y-63101359D01*
X49096443Y-63153534D01*
X49147963Y-63323373D01*
X49165359Y-63500000D01*
X49147963Y-63676627D01*
X49096443Y-63846466D01*
X49096442Y-63846467D01*
X49012780Y-64002989D01*
X48900185Y-64140185D01*
X48762989Y-64252780D01*
X48658641Y-64308555D01*
X48606466Y-64336443D01*
X48436627Y-64387963D01*
X48392504Y-64392309D01*
X48304260Y-64401000D01*
X48215740Y-64401000D01*
X48127496Y-64392309D01*
X48083373Y-64387963D01*
X47913534Y-64336443D01*
X47861359Y-64308555D01*
X47757011Y-64252780D01*
X47619815Y-64140185D01*
X47507220Y-64002989D01*
X47423558Y-63846467D01*
X47423557Y-63846466D01*
X47372037Y-63676627D01*
X47354641Y-63500000D01*
X47372037Y-63323373D01*
X47423557Y-63153534D01*
X47451445Y-63101359D01*
X47507220Y-62997011D01*
X47619815Y-62859815D01*
X47757011Y-62747220D01*
X47861359Y-62691445D01*
X47913534Y-62663557D01*
X48083373Y-62612037D01*
X48127496Y-62607691D01*
X48215740Y-62599000D01*
X48304260Y-62599000D01*
X48392504Y-62607691D01*
X48392504Y-62607691D01*
G37*
G36*
X50932504Y-62607691D02*
G01*
X50976627Y-62612037D01*
X51146466Y-62663557D01*
X51198641Y-62691445D01*
X51302989Y-62747220D01*
X51440185Y-62859815D01*
X51552780Y-62997011D01*
X51608555Y-63101359D01*
X51636443Y-63153534D01*
X51687963Y-63323373D01*
X51705359Y-63500000D01*
X51687963Y-63676627D01*
X51636443Y-63846466D01*
X51636442Y-63846467D01*
X51552780Y-64002989D01*
X51440185Y-64140185D01*
X51302989Y-64252780D01*
X51198641Y-64308555D01*
X51146466Y-64336443D01*
X50976627Y-64387963D01*
X50932504Y-64392309D01*
X50844260Y-64401000D01*
X50755740Y-64401000D01*
X50667496Y-64392309D01*
X50623373Y-64387963D01*
X50453534Y-64336443D01*
X50401359Y-64308555D01*
X50297011Y-64252780D01*
X50159815Y-64140185D01*
X50047220Y-64002989D01*
X49963558Y-63846467D01*
X49963557Y-63846466D01*
X49912037Y-63676627D01*
X49894641Y-63500000D01*
X49912037Y-63323373D01*
X49963557Y-63153534D01*
X49991445Y-63101359D01*
X50047220Y-62997011D01*
X50159815Y-62859815D01*
X50297011Y-62747220D01*
X50401359Y-62691445D01*
X50453534Y-62663557D01*
X50623373Y-62612037D01*
X50667496Y-62607691D01*
X50755740Y-62599000D01*
X50844260Y-62599000D01*
X50932504Y-62607691D01*
X50932504Y-62607691D01*
G37*
G36*
X54241000Y-64401000D02*
G01*
X52439000Y-64401000D01*
X52439000Y-62599000D01*
X54241000Y-62599000D01*
X54241000Y-64401000D01*
X54241000Y-64401000D01*
G37*
G36*
X56012504Y-62607691D02*
G01*
X56056627Y-62612037D01*
X56226466Y-62663557D01*
X56278641Y-62691445D01*
X56382989Y-62747220D01*
X56520185Y-62859815D01*
X56632780Y-62997011D01*
X56688555Y-63101359D01*
X56716443Y-63153534D01*
X56767963Y-63323373D01*
X56785359Y-63500000D01*
X56767963Y-63676627D01*
X56716443Y-63846466D01*
X56716442Y-63846467D01*
X56632780Y-64002989D01*
X56520185Y-64140185D01*
X56382989Y-64252780D01*
X56278641Y-64308555D01*
X56226466Y-64336443D01*
X56056627Y-64387963D01*
X56012504Y-64392309D01*
X55924260Y-64401000D01*
X55835740Y-64401000D01*
X55747496Y-64392309D01*
X55703373Y-64387963D01*
X55533534Y-64336443D01*
X55481359Y-64308555D01*
X55377011Y-64252780D01*
X55239815Y-64140185D01*
X55127220Y-64002989D01*
X55043558Y-63846467D01*
X55043557Y-63846466D01*
X54992037Y-63676627D01*
X54974641Y-63500000D01*
X54992037Y-63323373D01*
X55043557Y-63153534D01*
X55071445Y-63101359D01*
X55127220Y-62997011D01*
X55239815Y-62859815D01*
X55377011Y-62747220D01*
X55481359Y-62691445D01*
X55533534Y-62663557D01*
X55703373Y-62612037D01*
X55747496Y-62607691D01*
X55835740Y-62599000D01*
X55924260Y-62599000D01*
X56012504Y-62607691D01*
X56012504Y-62607691D01*
G37*
G36*
X109987504Y-62607691D02*
G01*
X110031627Y-62612037D01*
X110201466Y-62663557D01*
X110253641Y-62691445D01*
X110357989Y-62747220D01*
X110495185Y-62859815D01*
X110607780Y-62997011D01*
X110663555Y-63101359D01*
X110691443Y-63153534D01*
X110742963Y-63323373D01*
X110760359Y-63500000D01*
X110742963Y-63676627D01*
X110691443Y-63846466D01*
X110691442Y-63846467D01*
X110607780Y-64002989D01*
X110495185Y-64140185D01*
X110357989Y-64252780D01*
X110253641Y-64308555D01*
X110201466Y-64336443D01*
X110031627Y-64387963D01*
X109987504Y-64392309D01*
X109899260Y-64401000D01*
X109810740Y-64401000D01*
X109722496Y-64392309D01*
X109678373Y-64387963D01*
X109508534Y-64336443D01*
X109456359Y-64308555D01*
X109352011Y-64252780D01*
X109214815Y-64140185D01*
X109102220Y-64002989D01*
X109018558Y-63846467D01*
X109018557Y-63846466D01*
X108967037Y-63676627D01*
X108949641Y-63500000D01*
X108967037Y-63323373D01*
X109018557Y-63153534D01*
X109046445Y-63101359D01*
X109102220Y-62997011D01*
X109214815Y-62859815D01*
X109352011Y-62747220D01*
X109456359Y-62691445D01*
X109508534Y-62663557D01*
X109678373Y-62612037D01*
X109722496Y-62607691D01*
X109810740Y-62599000D01*
X109899260Y-62599000D01*
X109987504Y-62607691D01*
X109987504Y-62607691D01*
G37*
G36*
X113296000Y-64401000D02*
G01*
X111494000Y-64401000D01*
X111494000Y-62599000D01*
X113296000Y-62599000D01*
X113296000Y-64401000D01*
X113296000Y-64401000D01*
G37*
G36*
X115067504Y-62607691D02*
G01*
X115111627Y-62612037D01*
X115281466Y-62663557D01*
X115333641Y-62691445D01*
X115437989Y-62747220D01*
X115575185Y-62859815D01*
X115687780Y-62997011D01*
X115743555Y-63101359D01*
X115771443Y-63153534D01*
X115822963Y-63323373D01*
X115840359Y-63500000D01*
X115822963Y-63676627D01*
X115771443Y-63846466D01*
X115771442Y-63846467D01*
X115687780Y-64002989D01*
X115575185Y-64140185D01*
X115437989Y-64252780D01*
X115333641Y-64308555D01*
X115281466Y-64336443D01*
X115111627Y-64387963D01*
X115067504Y-64392309D01*
X114979260Y-64401000D01*
X114890740Y-64401000D01*
X114802496Y-64392309D01*
X114758373Y-64387963D01*
X114588534Y-64336443D01*
X114536359Y-64308555D01*
X114432011Y-64252780D01*
X114294815Y-64140185D01*
X114182220Y-64002989D01*
X114098558Y-63846467D01*
X114098557Y-63846466D01*
X114047037Y-63676627D01*
X114029641Y-63500000D01*
X114047037Y-63323373D01*
X114098557Y-63153534D01*
X114126445Y-63101359D01*
X114182220Y-62997011D01*
X114294815Y-62859815D01*
X114432011Y-62747220D01*
X114536359Y-62691445D01*
X114588534Y-62663557D01*
X114758373Y-62612037D01*
X114802496Y-62607691D01*
X114890740Y-62599000D01*
X114979260Y-62599000D01*
X115067504Y-62607691D01*
X115067504Y-62607691D01*
G37*
G36*
X117607504Y-62607691D02*
G01*
X117651627Y-62612037D01*
X117821466Y-62663557D01*
X117873641Y-62691445D01*
X117977989Y-62747220D01*
X118115185Y-62859815D01*
X118227780Y-62997011D01*
X118283555Y-63101359D01*
X118311443Y-63153534D01*
X118362963Y-63323373D01*
X118380359Y-63500000D01*
X118362963Y-63676627D01*
X118311443Y-63846466D01*
X118311442Y-63846467D01*
X118227780Y-64002989D01*
X118115185Y-64140185D01*
X117977989Y-64252780D01*
X117873641Y-64308555D01*
X117821466Y-64336443D01*
X117651627Y-64387963D01*
X117607504Y-64392309D01*
X117519260Y-64401000D01*
X117430740Y-64401000D01*
X117342496Y-64392309D01*
X117298373Y-64387963D01*
X117128534Y-64336443D01*
X117076359Y-64308555D01*
X116972011Y-64252780D01*
X116834815Y-64140185D01*
X116722220Y-64002989D01*
X116638558Y-63846467D01*
X116638557Y-63846466D01*
X116587037Y-63676627D01*
X116569641Y-63500000D01*
X116587037Y-63323373D01*
X116638557Y-63153534D01*
X116666445Y-63101359D01*
X116722220Y-62997011D01*
X116834815Y-62859815D01*
X116972011Y-62747220D01*
X117076359Y-62691445D01*
X117128534Y-62663557D01*
X117298373Y-62612037D01*
X117342496Y-62607691D01*
X117430740Y-62599000D01*
X117519260Y-62599000D01*
X117607504Y-62607691D01*
X117607504Y-62607691D01*
G37*
G36*
X120916000Y-64401000D02*
G01*
X119114000Y-64401000D01*
X119114000Y-62599000D01*
X120916000Y-62599000D01*
X120916000Y-64401000D01*
X120916000Y-64401000D01*
G37*
G36*
X122687504Y-62607691D02*
G01*
X122731627Y-62612037D01*
X122901466Y-62663557D01*
X122953641Y-62691445D01*
X123057989Y-62747220D01*
X123195185Y-62859815D01*
X123307780Y-62997011D01*
X123363555Y-63101359D01*
X123391443Y-63153534D01*
X123442963Y-63323373D01*
X123460359Y-63500000D01*
X123442963Y-63676627D01*
X123391443Y-63846466D01*
X123391442Y-63846467D01*
X123307780Y-64002989D01*
X123195185Y-64140185D01*
X123057989Y-64252780D01*
X122953641Y-64308555D01*
X122901466Y-64336443D01*
X122731627Y-64387963D01*
X122687504Y-64392309D01*
X122599260Y-64401000D01*
X122510740Y-64401000D01*
X122422496Y-64392309D01*
X122378373Y-64387963D01*
X122208534Y-64336443D01*
X122156359Y-64308555D01*
X122052011Y-64252780D01*
X121914815Y-64140185D01*
X121802220Y-64002989D01*
X121718558Y-63846467D01*
X121718557Y-63846466D01*
X121667037Y-63676627D01*
X121649641Y-63500000D01*
X121667037Y-63323373D01*
X121718557Y-63153534D01*
X121746445Y-63101359D01*
X121802220Y-62997011D01*
X121914815Y-62859815D01*
X122052011Y-62747220D01*
X122156359Y-62691445D01*
X122208534Y-62663557D01*
X122378373Y-62612037D01*
X122422496Y-62607691D01*
X122510740Y-62599000D01*
X122599260Y-62599000D01*
X122687504Y-62607691D01*
X122687504Y-62607691D01*
G37*
G36*
X43312504Y-62607691D02*
G01*
X43356627Y-62612037D01*
X43526466Y-62663557D01*
X43578641Y-62691445D01*
X43682989Y-62747220D01*
X43820185Y-62859815D01*
X43932780Y-62997011D01*
X43988555Y-63101359D01*
X44016443Y-63153534D01*
X44067963Y-63323373D01*
X44085359Y-63500000D01*
X44067963Y-63676627D01*
X44016443Y-63846466D01*
X44016442Y-63846467D01*
X43932780Y-64002989D01*
X43820185Y-64140185D01*
X43682989Y-64252780D01*
X43578641Y-64308555D01*
X43526466Y-64336443D01*
X43356627Y-64387963D01*
X43312504Y-64392309D01*
X43224260Y-64401000D01*
X43135740Y-64401000D01*
X43047496Y-64392309D01*
X43003373Y-64387963D01*
X42833534Y-64336443D01*
X42781359Y-64308555D01*
X42677011Y-64252780D01*
X42539815Y-64140185D01*
X42427220Y-64002989D01*
X42343558Y-63846467D01*
X42343557Y-63846466D01*
X42292037Y-63676627D01*
X42274641Y-63500000D01*
X42292037Y-63323373D01*
X42343557Y-63153534D01*
X42371445Y-63101359D01*
X42427220Y-62997011D01*
X42539815Y-62859815D01*
X42677011Y-62747220D01*
X42781359Y-62691445D01*
X42833534Y-62663557D01*
X43003373Y-62612037D01*
X43047496Y-62607691D01*
X43135740Y-62599000D01*
X43224260Y-62599000D01*
X43312504Y-62607691D01*
X43312504Y-62607691D01*
G37*
M02*
